<?xml version="1.0" standalone="no"?>
<svg xmlns="http://www.w3.org/2000/svg" version="1.1" xmlns:xlink="http://www.w3.org/1999/xlink" width="512" height="512" x="0" y="0" viewBox="0 0 512 512" style="enable-background:new 0 0 512 512" xml:space="preserve" class=""><g><path d="M446.291 160.215c9.679-31.055 12.514-64.183 11.38-84.14-.533-9.369-1.941-15.835-3.926-17.82-1.603-1.603-6.126-2.829-12.739-3.523-31.247-3.277-109.159 5.346-146.184 42.371-44.861 44.861-27.71 99.428-3.532 123.607 24.179 24.179 78.746 41.329 123.607-3.532 6.722-6.722 12.507-14.791 17.456-23.684" style="stroke-width:15;stroke-linecap:round;stroke-linejoin:round;stroke-miterlimit:10;" fill="none" stroke="#a0522d" stroke-width="15" stroke-linecap="round" stroke-linejoin="round" stroke-miterlimit="10" data-original="#000000" class="" opacity="1"/><path d="M419.69 92.31 288.218 223.782A110 110 0 0 0 256 301.563v78.687M408.212 146.167l-49.442 7.063M360.281 194.098l-49.442 7.063M344.638 123.84l-7.254 50.776M189.472 181.226c46.49 26.841 44.423 75.196 29.956 100.253-14.467 25.057-55.31 51.025-101.8 24.184-36.431-21.034-60.007-77.802-65.862-105.959-1.616-7.774-1.882-13.367-.694-15.425.959-1.661 4.387-3.654 9.64-5.669 24.822-9.521 90.39-19.537 128.76 2.616z" style="stroke-width:15;stroke-linecap:round;stroke-linejoin:round;stroke-miterlimit:10;" fill="none" stroke="#a0522d" stroke-width="15" stroke-linecap="round" stroke-linejoin="round" stroke-miterlimit="10" data-original="#000000" class="" opacity="1"/><path d="m86.364 204.654 142.735 82.408A53.804 53.804 0 0 1 256 333.656v0M107.54 246.16l41.957-5.056M157.212 274.838l41.957-5.055M154.611 213.988 171.66 253.9" style="stroke-width:15;stroke-linecap:round;stroke-linejoin:round;stroke-miterlimit:10;" fill="none" stroke="#a0522d" stroke-width="15" stroke-linecap="round" stroke-linejoin="round" stroke-miterlimit="10" data-original="#000000" class="" opacity="1"/><path d="M74.606 86.15C32.985 130.582 7.5 190.315 7.5 256c0 137.243 111.257 248.5 248.5 248.5S504.5 393.243 504.5 256c0-54.889-17.796-105.621-47.932-146.742M402.742 55.432C361.621 25.296 310.889 7.5 256 7.5c-58.833 0-112.89 20.445-155.455 54.617" style="stroke-width:15;stroke-linecap:round;stroke-linejoin:round;stroke-miterlimit:10;" fill="none" stroke="#a0522d" stroke-width="15" stroke-linecap="round" stroke-linejoin="round" stroke-miterlimit="10" data-original="#000000" class="" opacity="1"/><path d="M166.984 401.849c25.924 15.856 56.403 24.994 89.016 24.994 94.354 0 170.844-76.489 170.844-170.844 0-15.687-2.115-30.88-6.074-45.31M86.315 275.994c4.808 41.25 24.311 78.015 53.135 104.92M301.31 91.231c-14.43-3.959-29.623-6.074-45.31-6.074-62.466 0-117.102 33.525-146.897 83.564" style="stroke-width:15;stroke-linecap:round;stroke-linejoin:round;stroke-miterlimit:10;" fill="none" stroke="#a0522d" stroke-width="15" stroke-linecap="round" stroke-linejoin="round" stroke-miterlimit="10" data-original="#000000" class="" opacity="1"/></g></svg>