<?xml version="1.0" encoding="UTF-8"?><svg id="a" xmlns="http://www.w3.org/2000/svg" width="1920" height="330.89" viewBox="0 0 1920 330.89"><defs><style>.b{fill:#9d9221;}.c{fill:#e3cd81;}</style></defs><path class="b" d="M848.75,244.93c318.5-8.8,637.04-49.09,954.35-19.97,39.05,3.58,78.32,8.06,116.9,14.97v90.96H0v-69.72c30.7,3.01,60.32-7.27,90.64-8.85,43.87-2.29,87.53,5.91,131.19,7.65,78.93,3.13,144.47-8.64,220.08-16.25,137.59-13.84,269.26,5.01,406.83,1.21Z"/><path class="c" d="M848.75,244.93c66.14-14.4,138.73-30.69,198.92-62.57,12.17-6.45,23.35-16.83,35.68-23.41,140.46-74.96,253.66-.52,399.22-42.06,30.69-8.76,84.03-41.4,110.49-43.2,11.3-.77,28.31,3.72,37.75,1.57,12.01-2.73,18.99-22.96,25.46-30.86,16.94-20.7,38.8-33.74,63.09-44.4l1.68,1.67c-9.53,37.16-33.04,67.52-74.76,66.49-22.28,15.46,16.32,22.58,28.05,23.13,19.61.92,38.29-8.16,56.18-6.17,15.86,1.77,39.94,14.6,58.5,13.99l130.99,55.87v84.97c-38.58-6.91-77.85-11.39-116.9-14.97-317.31-29.12-635.84,11.17-954.35,19.97Z"/></svg>