<?xml version="1.0" encoding="UTF-8"?><svg id="a" xmlns="http://www.w3.org/2000/svg" width="160.84" height="160.58" viewBox="0 0 160.84 160.58"><defs><style>.b{fill:none;stroke:#000;stroke-linecap:round;stroke-linejoin:round;}</style></defs><path class="b" d="M81.09,141.96c.44-1.86.78-3.76,1.35-5.59,1.28-4.09.08-7.78-1.79-11.31-1.12-2.12-2.56-4.06-3.85-6.08-.12-.02-.25-.04-.37-.05-.58,1.33-1.15,2.66-1.74,3.99-1.74,3.89-1.06,7.69.41,11.45.83,2.13,1.97,4.07,3.72,5.6,1.38,1.21,2.39,2.66,3.09,4.38,1.02,2.51,3.19,3.99,5.31,5.46,2.9,2,5.99,3.75,8.39,6.4.23.26.45.53.67.8"/><path class="b" d="M64.57,41.93c-2.53,2.4-5,4.86-7.61,7.17-2.31,2.05-4.69,4.05-7.2,5.85-2.84,2.03-6,3.49-9.57,3.75-1.37.1-2.76.2-4.13.12-3.82-.22-7.21.87-10.4,2.93-2.64,1.7-5.4,3.22-8.11,4.82"/><path class="b" d="M160.34,124.38c-1.02-.89-1.98-1.86-3.08-2.65-2.94-2.11-5.96-4.08-9.45-5.2-.72-.23-1.48-.31-2.32-.48-.04,2.37.91,4.25,1.66,6.19.52,1.34,1.14,2.64,1.58,4,.88,2.74,2.67,4.62,5.21,5.86,2.14,1.05,4.26,2.13,6.4,3.19"/><path class="b" d="M126.91,25.28c.98-7.81-2.68-12.36-9.07-15.15-.61-.27-1.41-.1-2.24-.14-.24,4.27.02,8.42,2.36,12.24,1.23,2.01,3.2,2.67,5.22,3.31,1.14.36,2.31.6,3.47.9.57-2.03-5.65-11.9-10.27-16.21"/><path class="b" d="M98.8,160.08c-1.27-1.09-1.84-2.51-2.14-4.13-.57-3.07-1.12-6.17-4.28-8.14.65-1.96,1.31-3.83,1.89-5.72,1.49-4.78-1.02-10.71-5.13-12.75-.21,1-.41,1.95-.59,2.9-.56,2.86-1.25,5.7-.8,8.66.47,3.07,2.21,5.23,4.8,6.79"/><path class="b" d="M85.35,154.88c-2.76-6.89-9.86-12.42-15.16-11.71.66,1.92,1.26,3.84,1.99,5.71,1.16,2.95,3.6,4.38,6.52,5.05,2.73.63,5.5,1.08,8.25,1.62,3.54.69,6.64,2.33,9.46,4.53"/><path class="b" d="M24.48,19.15c-.93,4.17-1.86,8.35-2.8,12.52-.34,1.54.27,2.88.79,4.27,1.04,2.82,2.85,5.14,4.59,7.57,3.58-4.73,4.13-7.64,1.09-12.73-1.25-2.1-3.22-3.77-4.86-5.63"/><path class="b" d="M135.43,39.93c.62-.8,1.38-1.53,1.84-2.41,1.96-3.79,4.93-6.41,8.81-8.13,4.72-2.09,7.08-6.03,8.13-10.91.26-1.23.5-2.46.79-3.87-2,.02-3.53.51-4.93,1.6-3.95,3.06-5.54,7.09-5.04,12,.05.46.34.89.52,1.33"/><path class="b" d="M133.57,122.38c1.91-.98,3.85-1.9,5.72-2.94,1.97-1.1,2.81-3.06,3.62-5.04.7-1.7,1.53-3.36,2.36-5.15-.08-.02-.36-.16-.64-.17-2.92-.1-5.38.76-7.07,3.31-.34.51-.84.94-1.32,1.33-1.37,1.11-2.2,2.51-2.39,4.27-.17,1.5-.36,3.01-.52,4.3-1.59,1.49-3.13,2.92-4.67,4.36"/><path class="b" d="M112.26,57.51c1.09,2.42,2.05,4.91,2.1,7.59.05,2.51-1.61,4.35-2.95,6.23-.93,1.31-2.27,2.34-3.42,3.5-.15-.06-.3-.11-.44-.17.15-1.01.24-2.03.46-3.03.49-2.18.99-4.37,1.6-6.52.64-2.24,1.41-4.44,2.1-6.67.03-.11-.08-.26-.12-.4"/><path class="b" d="M145.69.5c-.58.44-1.14.91-1.73,1.33-.75.54-1.5.94-2.53.98-2.5.09-4.61,2.81-4.17,6.23.36,2.73,1.38,5.22,2.63,7.55,1.65,3.07,1.71,6.24,1.36,9.49-.21,2.02-.77,4-1.15,6-.07.34,0,.71,0,1.06"/><path class="b" d="M110.52,33.8c-2.15-2.12-4.9-2.51-7.73-2.66-2.4-.13-4.8-.27-7.9-.44-1.83,1.12-4.3,2.47-6.59,4.07-1.64,1.15-3.19,2.5-4.52,3.99-2.1,2.34-2.56,5.32-2.71,8.36-.18,3.75.39,7.29,2.68,10.39.49.66.96,1.38,1.61,1.85,1.87,1.35,3.81,2.58,5.96,4.01.17-2.95-.13-5.7-1.46-8.24-1.79-3.41-4.82-4.68-8.51-4.67"/><path class="b" d="M18.22,121.45c-.98-2.96-3.26-5.08-4.89-7.62-2.35-3.67-3.39-7.62-1.67-11.97.97-2.46,1.66-5.04,2.42-7.58.43-1.43.94-2.38,2.22-3.51.81.48,1.88.83,2.56,1.54,2.76,2.9,5.11,6.06,6.47,9.95,1.55,4.41.92,8.43-1.51,12.26-1.43,2.24-2.91,4.46-4.41,6.65-.2.29-.69.37-1.04.55"/><path class="b" d="M16.62,91.21c.44,2.62.97,5.23,1.31,7.86.37,2.87.66,5.76.8,8.66.16,3.41.16,6.84.15,10.26,0,2-.16,4-.25,5.99-.05,1.11-.09,2.22-.13,3.33"/><path class="b" d="M41.79,128.77c.53.22,1.07.43,1.6.67,2.84,1.33,5.71,2.6,8.52,4.01,2.03,1.02,4.03,2.21,5.19,4.25,2.06,3.64,2.36,7.5.92,11.43-.28.77-.97,1.39-1.52,2.13-1.67-1.19-3.25-2.34-4.85-3.45-2.12-1.48-4.36-2.81-6.36-4.43-2.09-1.69-2.77-4.13-2.83-6.76-.04-1.64,0-3.29-.16-4.93-.1-1.04-.29-2.17-.81-3.04-1.1-1.82-2.41-3.51-3.7-5.21-.37-.49-.96-.81-1.45-1.21"/><path class="b" d="M11.16,142.36c.62-1.24,1.2-2.51,1.87-3.73,3-5.44,6.82-10.12,12.24-13.33,2.06-1.22,4.12-2.43,6.11-3.75.93-.62,1.82-1.39,2.53-2.26,2.85-3.51,6.36-6.14,10.24-8.44,2.17-1.29,4.61-2.47,6.01-4.74,2.39-3.87,3.11-8.05,1.44-12.36-.95-2.47-.99-4.91-.96-7.48.02-1.91-.07-4.02-1.66-5.51-.58.07-1.02.12-1.65.2-.53,1-1.06,2.11-1.69,3.17-.66,1.1-1.32,2.22-2.14,3.19-1.59,1.87-2.35,3.98-2.39,6.41-.04,2.44-.15,4.88-.26,7.33-.1,2.23,1.2,3.81,2.56,5.31.94,1.04,1.6,2.16,1.97,3.48"/><path class="b" d="M46.85,122.11c4.11,1.85,8.22,3.66,12.92,2.55,1.55-.37,2.74-1.31,3.84-2.3,2.56-2.32,5.03-4.73,7.46-7.19.63-.64.95-1.59,1.42-2.4-.06-.13-.13-.25-.19-.38-.58,0-1.21-.16-1.72.03-3.28,1.17-6.64,1.02-10,.63-3.98-.46-7.4.83-10.37,3.36-1.86,1.59-3.57,3.36-5.34,5.04"/><path class="b" d="M48.19,81.09c-.63,5.69.09,11.37.23,17.05.08,3.38.2,6.83-1.42,10-.09.18-.01.44-.01.66"/><path class="b" d="M36.2,8.09c3.55.38,6.54,1.97,9.03,4.43,1.32,1.3,2.43,2.84,3.47,4.38,2.53,3.76,6.23,4.6,10.41,4.39,2.89-.15,5.77-.28,8.66-.4.81-.03,1.6-.06,2.06-1.03-1.78-2.22-3.47-4.57-5.43-6.67-1.58-1.69-3.9-2.09-6.09-2.56-4.96-1.07-9.94-1.08-14.92-.14"/><path class="b" d="M103.46,103.07c.68-2.21,1.12-4.48.88-6.79-.08-.83-.61-1.72-1.18-2.38-1.29-1.5-2.76-2.84-4.75-3.39-1.84,3.33-1.03,8.57,2.16,10.61,3.67,2.35,5.4,5.88,7.14,9.53"/><path class="b" d="M126.64,81.75c.85-2.28,1.4-4.64,1.14-7.05-.09-.84-.81-1.7-1.43-2.38-1.01-1.11-2.18-2.09-3.33-3.17-1.27.99-1.66,2.4-1.81,3.82-.53,5,1.8,6.95,5.16,8.93,2.36,1.39,4.86,2.62,6.97,5.01-1.24-.09-2.17-.12-3.1-.24-1.85-.22-3.65-.15-5.47.37-1.47.42-2.37,1.57-3.58,2.32-.8.5-1.49,1.18-2.28,1.71-1.71,1.17-3.5,1.44-5.46.55-2.82-1.29-5.68-2.49-8.51-3.75-.52-.23-.98-.61-1.47-.92"/><path class="b" d="M160.34,60.97c-1.11.8-2.25,1.56-3.32,2.4-3.46,2.71-5.93,2.67-9.33,0-.84-.66-1.67-1.36-2.54-1.99-1.47-1.07-3.2-1.49-4.91-1.16-2.21.43-4.36,1.2-6.54,1.82"/><path class="b" d="M91.08,29.94c-2.18.71-4.4,1.3-6.52,2.16-4.87,1.97-9.69,4.05-14.52,6.11-.75.32-1.47.73-2.13,1.2-1.06.75-1.93,1.91-3.09,2.33-5.2,1.87-10.05,4.8-15.7,5.39-.09,0-.18.08-.26.12-.18.23-.32.53-.55.66-3.17,1.83-6.11,4.02-9.56,5.4-1.99.79-3.85.68-5.74.18-1.86-.49-3.68-1.13-5.45-1.87-.88-.37-1.59-1.12-2.49-1.78,2.81-2.63,5.71-4.73,9.27-5.77,1.85-.54,3.68-.38,5.31.56,2.79,1.6,5.79,2.33,8.94,2.64"/><path class="b" d="M100.4,158.61c1.95-1.86,4.02-3.63,5.83-5.62,2.74-3,3.76-6.58,2.96-10.63-.48-2.44-1.07-4.85-2.27-7.06-.1-.19-.2-.39-.3-.6-4.39,2.99-8.96,12.2-7.16,21.65"/><path class="b" d="M72.03,113.19c-6.74,5.12-14.69,6.99-22.78,8.53-2.34.45-4.62-.29-6.93-.25-1.96.03-3.91.25-5.86.38"/><path class="b" d="M19.95,160.08c-.24-4.36-2.46-7.72-5.48-10.63-.65-.63-1.58-.97-2.61-1.59-1.33,4.18-1.79,8.08-.83,12.09"/><path class="b" d="M87.61,97.07c-.44-2.18-.72-4.4-1.37-6.51-.83-2.69-3.1-4.09-5.56-5.05-1.81-.71-3.7-1.24-5.59-1.73-.75-.19-1.59-.03-2.52-.03-.42,1.59-.13,3.29.41,4.92,1.05,3.18,2.77,5.93,5.58,7.86,1.79,1.23,3.95,1.48,5.99,1.99,1.31.33,2.66.55,3.99.81"/><path class="b" d="M45.66,12.75c1.33.62,2.67,1.23,4,1.87,5.44,2.61,11.28,3.69,17.18,4.52.84.12,1.69.18,2.53.27"/><path class="b" d="M130.5,66.83c-.53,3.05.76,5.73,1.9,8.38,1.49,3.44,4.03,6.24,6.09,9.34,2.46,3.7,5.49,6.94,8.25,10.39,3.28,4.12,5.48,8.84,7.31,13.73,1.11,2.97,1.98,6.03,2.96,9.05.09.28.26.53.39.8"/><path class="b" d="M17.28,67.1c-.04,1.73-.16,3.47-.12,5.19.07,2.38-.5,3.51-2.7,4.22-2.07.68-4.26.98-6.38,1.52-1.74.44-3.45,1.02-5.21,1.42-.54.12-1.17-.17-1.8-.27.82-4.57,2.91-8.12,6.34-10.88,1.55-1.25,3.43-1.54,5.33-1.73,1.28-.13,2.57-.19,3.86-.27.53-.03.54-.02.67.66"/><path class="b" d="M11.42,21.41c-.04,1.33-.02,2.67-.15,3.99-.22,2.23.22,4.59-.93,6.65-2.05,3.65-4.21,7.24-8.6,9.08-.07-.67-.12-1.21-.17-1.75"/><path class="b" d="M123.98,87.08c0-.13.06-.31,0-.39-2.3-2.99-4.86-5.48-9.05-5.36-1.53.04-2.82.59-4.13,1.23-2.53,1.24-5.06,2.49-7.59,3.73-.05.03-.13.1-.13.13.02.09.08.18.12.27"/><path class="b" d="M47.65,47.25c-1.6.49-3.18,1.06-4.8,1.45-5.38,1.28-10.87,1.53-16.38,1.49-.13,0-.27.08-.4.13"/><path class="b" d="M52.85,71.9c.44-2.49.68-5.03,1.38-7.45,1.11-3.83,2.53-7.56,3.82-11.34.12-.36.28-.7.7-1.13.12.55.25,1.11.37,1.67.36,1.69.66,3.39,1.08,5.06.62,2.48.07,4.76-1.09,6.92-1.3,2.42-2.8,4.72-4.93,6.52-.42.35-.97,1.13-1.45.01"/><path class="b" d="M58.18,52.18c-1.55,1.02-3.19,1.94-4.64,3.09-2.28,1.8-3.09,4.38-3.5,7.17-.39,2.64.16,5.05,1.48,7.33.4.69.72,1.42,1.07,2.13"/><path class="b" d="M21.55,13.15c.4,1.02.67,2.12,1.23,3.05,1.03,1.71,2.14,3.35,3.68,4.7,1.26,1.11,2.74,1.02,4.15,1,3.06-.04,5.84.51,8.28,2.55,2.18,1.83,4.68,1.64,7.17.68,1.39-.54,2.75-1.16,4.34-1.84-.83-.62-1.55-1.24-2.35-1.74-1.98-1.23-3.96-2.46-5.99-3.59-1.99-1.11-4-1.16-6.13-.18-2.36,1.08-4.66,2.2-6.65,3.89"/><path class="b" d="M115.05,115.85c-1.29-.31-2.57-.64-3.86-.93-2.82-.64-5.57-1.71-8.52-1.45-1.52.14-3.02.53-4.53.77-3.14.49-6.3.9-9.45.26-2.99-.61-5.59-1.89-7.06-4.78-.08-.16-.09-.35-.14-.53-.04-.13-.09-.27-.19-.56,3.45.27,6.89.21,9.64,2.7,1.11,1.01,2.14,2.12,3.2,3.19"/><path class="b" d="M10.36,21.81c-2.85.85-5.6,1.89-7.45,4.4-1.06,1.45-1.41,3.17-1.46,4.92-.07,2.66-.02,5.33-.02,7.99"/><path class="b" d="M14.62,30.2c2.02,1.66,3.68,3.65,4.5,6.14,1.16,3.49,1.36,7.13.95,10.78-.12,1.09-.4,2.16-.62,3.33-2.7-2.08-6.23-5.99-6.91-8.27-1.06-3.51-1.42-7.08,1.15-10.24"/><path class="b" d="M.5,101.73c2.09,1.33,4.06,2.79,5.74,4.65,2.06,2.29,2.73,5.15,3.28,8.01.41,2.14.48,4.34.7,6.52"/><path class="b" d="M105.2,136.1c-.22.8-.39,1.62-.68,2.39-1.97,5.27-3.58,10.64-4.26,16.25-.06.54-.17,1.07-.26,1.6"/><path class="b" d="M.5,12.75c2.68,1.14,5.51,1.68,8.39,1.84,2.52.14,5.06.03,7.7.03-.44,2.43-1.82,4.33-3.75,5.53-2.55,1.58-3.93,3.96-5.41,6.33-2.42,3.86-4.46,7.9-5.48,12.38-.02.1-.17.18-.26.27"/><path class="b" d="M42.46,130.77c3.15,3.33,6.35,6.62,9.44,10,2.57,2.8,4.09,6.08,4.01,9.98"/><path class="b" d="M104.13,86.15c2,1.09,4.22,1.26,6.39,1.29,3.77.06,7.55-.14,11.32-.22.58-.01,1.15.08,1.73.13"/><path class="b" d="M152.62,160.08c.89-1.07,1.76-2.15,2.67-3.19,1.34-1.54,2.72-3.04,4.04-4.52-4.74-2.5-14.16-1.5-16.83,7.71"/><path class="b" d="M77.09,86.68c4.09,3.01,7.39,6.82,10.65,10.66.23.27.44.6.53.93.65,2.42,2.51,3.71,4.55,4.78,4.91,2.6,10.02,4.89,14.71,7.84,2.66,1.67,5.37,3.37,8,5.11,5.51,3.65,9.18,8.7,12.57,14.1.68,1.08,1.87,1.87,1.87,3.33"/><path class="b" d="M138.36,57.38c2.87-5.61,5.37-11.44,9.84-16.52-.65,0-1.09-.11-1.44.02-2.36.86-3.99,2.62-5.32,4.65-2.18,3.31-3.19,7.02-3.59,10.92-.04.38.2.8.31,1.2"/><path class="b" d="M149.69,98.94c-.18-1.29-.32-2.58-.54-3.86-.59-3.51.72-6.28,3.19-8.67,1.08-1.05,2.09-2.18,3.07-3.33,1.39-1.63,1.85-3.5,1.2-5.59-.85-2.71-1.47-5.5-2.85-8.08-1.6,1.41-3.16,2.69-4.6,4.1-1.79,1.75-1.99,4.02-1.3,6.23.83,2.68,2,5.25,3.02,7.87"/><path class="b" d="M115.72,127.84c-.67-2.66-2.7-4.24-4.66-5.86-2.99-2.47-6.37-2.31-9.86-1.47-.86.21-1.72.43-2.64.81,2.17,1.35,3.37,3.48,4.94,5.29,1.38,1.59,3.4,1.71,5.42,1.65,3.51-.11,7.03-.3,10.52-.1,3.27.19,5.91,2.06,8.55,3.9,3.83,2.68,4.9,6.88,6.5,10.82.56,1.38,1.16,2.75,1.72,4.13.1.24.1.53.14.8"/><path class="b" d="M81.35,42.99c-1.11.98-2.2,1.98-3.34,2.92-1.85,1.53-3.72,3.04-5.59,4.53-2.09,1.67-2.39,4-2.23,6.39.17,2.5.58,4.98.91,7.46.03.2.24.36.37.55,3.19-1.93,3.82-5.08,4-8.4.17-3.05.23-6.11,1.21-9.06"/><path class="b" d="M129.57,115.45c-1.82-1.95-3.75-3.82-5.43-5.89-1.51-1.85-1.88-4.12-1.64-6.5.3-2.88,1.38-5.46,2.77-7.87,1.6,2.46,3.19,4.8,4.69,7.21,1.98,3.19,1.69,6.57.67,9.98-.19.63-.44,1.24-.66,1.87"/><path class="b" d="M147.55,42.06c-.18,2.49-.37,4.97-.53,7.46-.14,2.21-1.35,3.77-3.09,4.9-1.79,1.18-3.81,2.02-5.55,3.26-1.73,1.24-3.22,2.81-4.83,4.22-1.44,1.27-2.19,2.96-2.93,4.66"/><path class="b" d="M68.97,154.08c-3.16-.75-6.37-1.08-9.59-.64-2.11.29-3.69,1.59-4.94,3.3-.82,1.13-1.68,2.22-2.53,3.33"/><path class="b" d="M125.71,96.14c-.58,1.67-.37,3.36-.15,5.06.45,3.47,1.76,6.69,3.13,9.83,1.45,3.33,1.21,6.45-.2,9.61-.92,2.05-.68,4.06-.14,6.14.37,1.44.55,2.93.82,4.39"/><path class="b" d="M26.07,146.62c.69,2.02,1.24,4.14,2.96,5.56.65.54,1.55.98,2.38,1.05,2.61.24,5.24.28,7.86.4.8-3.39-.08-5.48-2.54-6.76-3.36-1.75-6.81-2.12-10.39-.79"/><path class="b" d="M37.26,130.37c-1.69.18-3.41.19-5.05.57-4.41,1.02-8.15,3.24-11.05,6.77-.35.43-.46,1.05-.68,1.58"/><path class="b" d="M96.41.5c1.55,1.55,3.51,2.87,4.58,4.71,2.13,3.66,4.11,7.48,4.96,11.68.3,1.49.05,3.1.05,4.65"/><path class="b" d="M38.06,130.24c-.49.53-1.02,1.03-1.46,1.6-2.13,2.81-4.18,5.72-7.74,6.9-1.03.34-2.12.59-3.19.66-1.77.11-3.55.03-5.04.03-1.55.6-2.85,1.1-4.15,1.6"/><path class="b" d="M123.58,47.25c-.02-3.27-.52-6.45-1.87-9.46-1.22-2.72-3.17-4.66-6.46-5.49.11,1.81.07,3.61.37,5.35.71,4.16,3.26,8.75,7.95,9.77.59.13,1.07.76,1.61,1.16"/><path class="b" d="M85.35,26.74c-1.46-3.08-2.38-6.31-2.22-9.72.11-2.4.19-4.86,1.5-7.33,1.33,1.97,2.6,3.76,3.77,5.61,1.44,2.26,1.16,4.53-.11,6.79-.84,1.49-1.61,3.02-2.41,4.52"/><path class="b" d="M160.34,55.78c-2-.13-4.01-.45-5.99-.36-3.04.15-5.67,1.57-8.12,3.3-.72.51-1.34,1.14-2.01,1.72"/><path class="b" d="M83.48,11.96c-3.31,4.61-3.12,10.79.68,14.5.32.31.87.37,1.32.55"/><path class="b" d="M87.75,76.43c.09-2.04.29-4.09.23-6.13-.06-2.07-.88-3.76-3.03-4.54-1.57-.57-3.11-1.23-4.67-1.85"/><path class="b" d="M80.82,48.05c-.31.8-.72,1.58-.92,2.4-1.03,4.35-.67,8.7.09,13.05.23,1.3.14,2.66.16,3.99.02,1.71.46,3.26,1.46,4.67,1.37,1.93,2.9,3.68,4.94,4.92.48.29,1.02.58,1.06-.39"/><path class="b" d="M128.37.5c.36,3.24.72,6.48,1.06,9.72.74,7,2.37,13.8,5.25,20.22,1.33,2.97,1.52,5.71.54,8.83-1.56,4.99-2.85,10.08-4,15.18-.61,2.69-.73,5.49-.96,8.25-.11,1.28.06,2.57.11,3.86"/><path class="b" d="M17.15,66.97c-.71.75-1.35,1.6-2.15,2.25-1.59,1.3-3.25,2.53-4.92,3.74-2.6,1.89-5.24,3.73-7.85,5.61-.22.16-.36.44-.54.66"/><path class="b" d="M36.73,131.3c-2.97,1.42-5.97,2.81-8.92,4.27-2.29,1.14-4.53,2.39-6.8,3.58"/><path class="b" d="M154.08,70.83c-.13,2.18-.13,4.37-.43,6.52-.4,2.82-1.03,5.6-1.56,8.4-.04.21,0,.44,0,.67"/><path class="b" d="M131.17,54.18c-.79-1.62-1.64-3.19-3.19-4.27-2.58-1.78-5.37-1.47-8.12-.76-2.67.69-4.68,2.33-5.87,4.9-.83,1.79-1.78,3.46-3.45,4.68-2.73,2-3.44,4.91-3.34,8.11.06,1.78.17,3.55.26,5.33"/><path class="b" d="M160.34,101.73c-1.17-.56-2.33-1.11-3.5-1.67-.12.07-.24.14-.36.21.04.84.07,1.68.13,2.52.17,2.53.24,5.08.57,7.59.23,1.81.81,3.56,2.62,4.55.23.13.36.43.54.65"/><path class="b" d="M132.64.5c.91,1.08,1.16,2.43,1.03,3.73-.37,3.98-1.48,7.78-3.03,11.46"/><path class="b" d="M120.51,152.08c.71-1.24,1.46-2.47,2.12-3.73,1.11-2.12.47-4.02-.94-5.71-1.36-1.65-2.82-3.22-4.26-4.79-.24-.26-.66-.35-1.22-.64-.14,1.05-.33,1.9-.35,2.76-.05,1.73,0,3.46-.02,5.19-.01,1.38.42,2.59,1.35,3.59,1.02,1.1,2.12,2.14,3.19,3.21"/><path class="b" d="M59.38.5c-2.26.99-4.52,1.98-6.58,2.88-2.47-.22-4.73-.49-7-.6-2.74-.13-5.04,1-7.06,2.77-.85.75-1.77,1.43-2.66,2.14"/><path class="b" d="M.5,135.3c2.24,1.5,4.6,2.81,6.41,4.91,1.26,1.45,1.88,3.11,2.08,4.95.05.46-.26,1.01-.51,1.46-1.94,3.47-3.9,6.93-5.85,10.4-.56,1-1.07,2.04-1.6,3.06"/><path class="b" d="M39,153.55c-1.98-2.05-4.44-3.39-6.94-4.64-1.85-.92-3.84-1.54-5.71-2.44-1.91-.92-3.72-2.06-5.61-3.03-1.59-.82-3.23-1.53-5.07-2.4-1.42.44-3.1.97-4.76,1.49-.58.87-1.16,1.75-1.75,2.63"/><path class="b" d="M124.64.5c-.58,2.63-.3,5.02,1.29,7.36,1.5,2.21,2.62,4.68,3.91,7.03"/><path class="b" d="M123.58,129.71c-2.85.98-4.76,3.05-6.4,5.46-.94,1.38-.43,2.88-.22,4.26.57,3.75,1.08,7.53,2.61,11.07.06.15,0,.35,0,.53"/><path class="b" d="M158.61,153.02c-1.78-.26-3.36.45-4.92,1.08-2.6,1.05-4.59,2.98-6.67,4.78-.45.39-.89.8-1.33,1.2"/><path class="b" d="M.5,124.11c.75,1.86,1.79,3.67,2.19,5.61.48,2.33.43,4.78.61,7.18"/><path class="b" d="M35.93,7.96c-1.78.71-3.53,1.47-5.33,2.12-1.89.68-3.81,1.27-5.73,1.86-.37.11-.79.02-1.19.02"/><path class="b" d="M.5,115.59c3.06,1.78,6.06,3.69,9.21,5.29,3.39,1.73,6.34,3.92,8.76,6.84-.3,1.32-.61,2.65-.92,3.98"/><path class="b" d="M.5,55.65c1.33.27,2.68.48,3.99.82.66.17,1.26.58,2.14,1.01-2.29,1.31-4.21,2.4-6.13,3.5"/><path class="b" d="M65.24.5c-.67.49-1.35.96-2,1.47-2.53,1.99-5.48,2.23-8.53,1.98-.58-.05-1.16-.25-1.73-.39"/><path class="b" d="M14.62,18.88c.09,2.26.25,4.53.24,6.79,0,1.47,0,3-.42,4.38-1.5,4.98-.18,9.47,2.04,13.87"/><path class="b" d="M80.29,64.97c1.07,1.82,2.1,3.66,3.2,5.46,1.26,2.06,2.57,4.09,3.86,6.13"/><path class="b" d="M37.26.5c-.93,1.07-1.89,2.11-2.79,3.2-1.19,1.43-2.83,1.87-4.53,2.27-1.45.34-2.88.74-4.18,1.08-.44,1.17-.85,2.09-1.14,3.04-.65,2.13-2.43,2.67-4.27,3.2-1.21.35-2.4.79-3.6,1.19"/><path class="b" d="M149.15,8.49c1.2.36,2.43.63,3.59,1.08,2.53.97,5.02,2.03,7.53,3.05"/><path class="b" d="M85.75,26.87c-.48.35-.29.62.14.79,1.33.54,2.63,1.17,4,1.58,1.7.51,3.46.82,5.19,1.22"/><path class="b" d="M152.62.5c-1.69,1.22-3.17,2.93-5.46,2.89-1.38-.02-2.75-.41-4.13-.63"/><path class="b" d="M68.97,154.35c-3.2,1.91-6.39,3.82-9.59,5.73"/><path class="b" d="M132.9,160.08c-1.15-1.86-2.29-3.74-3.47-5.59-.56-.88-1.19-1.72-2.15-2.63-.88,2.74-1.76,5.48-2.64,8.22"/><path class="b" d="M142.23,90.01c-1.64-.62-3.27-1.28-4.93-1.85-1.35-.46-2.75-.81-4.12-1.21"/><path class="b" d="M160.34,2.36c-.31,1.15-.74,2.29-.91,3.47-.26,1.81-.46,3.66.64,5.32"/><path class="b" d="M37,160.08c.39-.62.78-1.23,1.25-1.98-2.85-.52-4.83.81-6.85,1.98"/><path class="b" d="M27.01,160.08c.44-2.74.05-5.23-2.14-7.19-.28-.25-.63-.43-.95-.64-1.66,2.29-1.78,5.93-.24,7.83"/><path class="b" d="M127.04,26.47c1.82,1.15,3.66,2.28,5.45,3.48.89.59,1.7,1.32,2.54,1.99"/><path class="b" d="M11.16.5c.34,1.41,1.2,2.39,2.53,2.92,1.5.6,3.02,1.16,4.53,1.74"/><path class="b" d="M128.11,153.02c.09,2.04.18,4.08.26,6.13.01.31,0,.62,0,.93"/><path class="b" d="M61.77,45.12c-.62,1.42-1.23,2.85-1.87,4.26-.41.9-.88,1.78-1.33,2.67"/><path class="b" d="M26.87.5c-.48,1.15-.96,2.3-1.44,3.45-.11-.04-.21-.08-.32-.12.19,1.11.37,2.22.56,3.33"/><path class="b" d="M18.62,5.43c.89.44,1.74.98,2.67,1.31,1.64.59,2.6,1.72,3.06,3.35"/><path class="b" d="M31.4.5c-2.04,1.52-3.61,3.45-4.92,5.6-.14.23-.18.53-.27.79"/><path class="b" d="M65.24,160.08c1.33-1.38,2.72-2.71,3.96-4.16.31-.36.94-1.12.04-1.7"/><path class="b" d="M100.4,96.41c.75,1.82,1.51,3.64,2.26,5.46.08.21.09.44.14.66"/><path class="b" d="M13.42,154.08c1.07,1.95,2.13,3.91,3.2,5.86"/><path class="b" d="M36.2,121.98c-1.38.13-2.75.28-4.13.39-.44.04-.89,0-1.33,0"/><path class="b" d="M19.95.5c-.28,1.58-.44,3.19-1.43,4.71-.63-1.68-1.2-3.19-1.77-4.71"/><path class="b" d="M73.49,84.02c1.11.8,2.22,1.6,3.33,2.4"/><path class="b" d="M99.6,156.61c.13,1.15.27,2.31.4,3.46"/><path class="b" d="M23.68.5c.49.98.98,1.95,1.47,2.93"/><path class="b" d="M51.92.5c-.27.84-.53,1.69-.8,2.53"/><path class="b" d="M98.54.5c.49.62.98,1.24,1.47,1.86"/><path class="b" d="M99.87.5c.09.18.24.35.26.53.11,1.02.19,2.04.28,3.06"/><path class="b" d="M1.3.5c-.27.62-.53,1.24-.8,1.86"/><path class="b" d="M142.36.63c-.13.62-.27,1.24-.4,1.86"/></svg>