<?xml version="1.0" encoding="UTF-8"?><svg id="a" xmlns="http://www.w3.org/2000/svg" width="160" height="150.62" viewBox="0 0 160 150.62"><defs><style>.b{fill:#603723;}.c{fill:#363214;}.d{fill:#251516;}.e{fill:#2f110b;}.f{fill:#f19e69;}.g{fill:#0c0c13;}.h{fill:#181012;}.i{fill:#c38248;}.j{fill:#f8e1b2;}.k{fill:#d99f62;}.l{fill:#f1a36c;}.m{fill:#601f0c;}.n{fill:#b67440;}.o{fill:#d49e63;}.p{fill:#fef6e5;}.q{fill:#7a8058;}.r{fill:#131518;}.s{fill:#c38247;}.t{fill:#151416;}.u{fill:#c07e2f;}.v{fill:#0f1216;}.w{fill:#fdf5e3;}.x{fill:#7b8059;}.y{fill:#111117;}.z{fill:#e1b871;}.aa{fill:#484d2c;}.ab{fill:#864d32;}.ac{fill:#c56534;}.ad{fill:#fdf0d5;}.ae{fill:#121418;}.af{fill:#170c0c;}.ag{fill:#d8a367;}.ah{fill:#7b8058;}.ai{fill:#332e13;}.aj{fill:#1a0c0d;}.ak{fill:#844c31;}.al{fill:#131418;}.am{fill:#fef7e5;}.an{fill:#7a7f58;}.ao{fill:#0f1117;}.ap{fill:#7a7f57;}.aq{fill:#905835;}.ar{fill:#35533a;}.as{fill:#2c4634;}.at{fill:#fef5e2;}.au{fill:#d9b677;}.av{fill:#c28148;}.aw{fill:#4a281c;}.ax{fill:#f29e68;}.ay{fill:#3c221f;}.az{fill:#0a0b12;}.ba{fill:#2d1917;}.bb{fill:#c09b57;}.bc{fill:#fef6e4;}.bd{fill:#6c2204;}.be{fill:#613723;}.bf{fill:#86662f;}.bg{fill:#8e5235;}.bh{fill:#0d0f15;}.bi{fill:#fcf0d5;}.bj{fill:#efa16b;}.bk{fill:#637759;}.bl{fill:#efa26c;}.bm{fill:#8c6a33;}.bn{fill:#0d1b0f;}.bo{fill:#240102;}.bp{fill:#7d8057;}.bq{fill:#192b25;}.br{fill:#f0a46d;}.bs{fill:#1b2109;}.bt{fill:#4f6c4f;}.bu{fill:#cf9b5d;}.bv{fill:#140f14;}.bw{fill:#141619;}.bx{fill:#0f1017;}.by{fill:#41241d;}.bz{fill:#fef5e3;}.ca{fill:#c76836;}.cb{fill:#292712;}.cc{fill:#101217;}.cd{fill:#dab57a;}.ce{fill:#797e57;}.cf{fill:#0d0f16;}.cg{fill:#192a25;}.ch{fill:#522c20;}.ci{fill:#506d4f;}.cj{fill:#111317;}.ck{fill:#181518;}.cl{fill:#131519;}.cm{fill:#8a682f;}</style></defs><path class="bo" d="M55.4,146.18v.18c-1.82.06-3.68.02-5.5,0-.06-.06-.12-.11-.17-.18,1.89-.06,3.79.08,5.68,0Z"/><path class="am" d="M8.79,105.35c-2.46-5.17-4.51-10.56-5.76-16.19C-6.8,45.06,27.98,3.84,70.28.3c33.39-2.8,65.19,14.34,78.89,45.99,7.41,17.12,8.06,38.16.06,55.2-.83,1.77-1.99,3.45-2.67,5.27-.28.05-.16-.24-.17-.44-.05-.82.18-1.81-.17-2.55-.16-7.25-.97-17.49-5.84-23.15-3.3-3.83-7.63-5.58-12.39-6.77-.77,2.57-2.19,5.15-3.87,7.22-1.76,2.17-4.84,5.28-7.84,3.61-2.2-1.22-2.3-4.53-2.4-6.78.11-.12.23-.24.34-.35.14.25.43.53.52.7.32.65.56,1.57.86,2.29.32.76.53,2.03,1.38,2.46.66.34,1.71.27,2.37-.14,2.37-1.47,4.97-5.12,6.04-7.72.29-.7.72-1.28.37-2-.1-.2-1.12-1.33-1.03-1.41.93.4,1.58.79,2.65.68,1.3-.13,2.76-1.27,3.03-2.62-.53.9-2.89-.29-2.4-.88.12-.14.59.51.64.52.66.16,1.27-.18,1.78-.6,1.36-1.12,1.78-2.01,1.71-3.79,0-.23,0-.47,0-.7-.59.11-1.17.89-1.68.65-.06-.03-.89-.9-.98-1.02-1.36-1.9-.08-6.23-.27-8.7-.23-2.99-1.96-6.69-4.69-8.06-.78-.39-1.93-.2-2.37-.41s-1.11-1.17-1.88-1.57c-2.68-1.38-6.69-.68-9.29.62-1.37-1.38-2.83-2.88-4.32-4.12-16.64-13.87-40.55-13.79-57.16.07-1.46,1.22-2.65,2.78-4.22,3.87-4.03-.92-8.84-2.34-11.78,1.58.08-1.77-.53-1.43-1.03-.18-.17.43-.15.99-.35,1.4-.19.38-.87.84-1.18,1.26-2.33,3.16-2.13,7.77-1.22,11.43.58,2.33,1.55,3.93,1.46,6.51s-1.06,4.43-3.44,5.54c1.88,2.99,4.69,6.76,7.96,8.22,3.37,1.5,2.8-1.2,3.9-3.55.27,1.14.49,3.65.12,4.79-.42,1.31-1.76,1.33-2.88,1.11-1.6-.31-3.97-2.18-5.23-3.27-2.23-1.93-3.95-4.27-5.7-6.67-11.03,4.08-15.17,17.04-16.73,27.9-.17,1.19-.25,2.39-.37,3.58Z"/><path class="bz" d="M103.9,92.15c-1.12,2.29-2.14,4.6-3.61,6.69-.27-.1-.41-.12-.69-.18-.12-.02-.21-.2-.58-.19-.71.02-1.66.48-2.18.97-.3.29-.44.72-.68.97-.05.05-.13.15-.17.18-.19.11-.37.19-.59.18-2.06-.5-4.67-.24-6.69-.71-.13-.03-.1-.3-.24-.34-1.74-.5-3.96-.43-5.8-1.07-2.73-.95-6.37-5.61-9.38-3.86-.78-.46-1.74-.36-2.58-.18-1.91.41-2.26,1.59-3.78,2.38-3.51,1.84-13.1,2.6-17.21,2.72-.76.02-1.91-.13-2.58,0-.5-2.44-.75-5.07-1.2-7.57h57.96Z"/><path class="ap" d="M156.88,99.02c.23.84-.23,4.59-.37,5.69-.58,4.44-1.92,9.53-4.45,13.22-1.37,1.99-3.42,3.51-5.23,5.03,0,0,.05-.18.08-.27,1.41-4.57,4.57-9.17,5.97-13.96.06-.2.16-.5.28-1.25-1.6,3.89-3.77,7.79-5.42,11.65-.49,1.14-.98,2.99-1.48,3.94-.15.28-.35.63-.72.58.63-2.02.19-4.18.34-6.25.2-2.82,1.84-7.01,3.27-9.41.84-1.4,1.98-2.74,3-4.06l4.74-4.92Z"/><path class="bp" d="M144.67,116.09c.31,1.03.69,3.08.7,4.13,0,.63-.21,2.96-.4,3.48-.21.6-1.78.99-2.37,1.18.02-.7-.03-1.41,0-2.11.08-1.8.09-3.71.16-5.55.06-1.39.41-2.89.35-4.3.27.14.54.71.67.99.24.53.73,1.66.88,2.18Z"/><path class="bf" d="M145.7,113.62c-.15.74-.23,1.54-.35,2.29-.3,0-.26-.49-.34-.7-.18-.46-.33-.96-.52-1.41l1.2-.18Z"/><path class="ah" d="M159.97,122.25c.1.42-.07.29-.22.39-5.07,3.58-8.79,8.61-13.45,12.63-5.2,4.48-11.36,7.89-17.97,9.42-5.55,1.29-11.29,1.33-16.86,2.55l5.37-3.34c8.31-6.19,16.35-13.35,25.63-18,5.5-2.75,11.35-4.08,17.5-3.64ZM146.21,128.76c-.8.28-1.68.71-2.41,1.14-.45.26-.79.68-1.08.84-5.08,2.91-9.56,5.62-14.44,8.8-1.94,1.26-3.95,2.43-5.8,3.82,2.4-1.04,4.67-2.4,6.91-3.75,4.61-2.77,9.26-5.79,13.79-8.77.2-.13.24-.39.41-.5.84-.55,1.93-.88,2.62-1.58Z"/><path class="x" d="M113.02,144.95c-2.3,1.32-4.79,2.68-7.35,3.33-.73.19-1.7.1-2.45.36.36-.73.97-1.23,1.55-1.76,3.08-2.8,6.97-5.73,10.54-7.79.78-.45,1.65-.77,2.45-1.18-.12,2.91-2.96,5.01-4.73,7.04Z"/><path class="an" d="M12.75,124.71c-.28-.24-1.06-.24-1.22-.46-.2-.28-.58-2.16-.76-2.7-1.3-3.75-2.56-7.78-4.98-10.92l.98,1.99c1.56,3.78,2.84,7.67,4.1,11.56-1.99-.42-3.48-2.37-4.61-3.99-3.36-4.8-4.8-11.5-5.36-17.3.14-.2,1.93,1.53,2.08,1.65,2.64,2.17,5.17,3.91,6.89,7.03,2.25,4.08,2.69,8.53,2.89,13.14Z"/><path class="q" d="M49.73,146.18c.06.06.11.12.17.18-2.04-.03-4.44-.87-6.19-2.11-2.05-1.46-6.19-6.28-6.19-8.89v-2.55c3.78,2.98,7.62,6.36,10.39,10.4.62.91,1.07,2.14,1.82,2.98Z"/><path class="ce" d="M15.85,110.46c.25-.05.17.2.22.38,1.11,4.21,1.08,7.1-.32,11.22-.24.7-.81,2.29-1.15,2.88-.29.52-1.09.15-1.17-.31-.04-1.87-.3-3.75-.17-5.63.21-2.99,1.46-5.82,2.58-8.54Z"/><path class="ah" d="M14.4,126.02c7.86,3.22,14.54,9.07,21.34,14.15l7.28,5.13c-1.14-.34-2.28-.69-3.44-.97-3.75-.9-7.61-1.25-11.49-2.14-11.72-2.69-18.02-7.91-26.41-16.18-.16-.16-1.9-1.44-1.66-1.64,4.89-.77,9.79-.23,14.38,1.66ZM15.1,130.4c-1.59-.85-4.74-2.28-6.43-2.66-.17-.04-.6-.18-.56.13,1.93.48,3.87,1.47,5.63,2.42,2.7,1.46,5.49,3.36,8.18,4.85,2.34,1.3,4.74,2.54,7.18,3.64-.57-.59-1.39-1.04-2.08-1.48-3.88-2.47-7.89-4.77-11.91-6.91Z"/><path class="z" d="M45.26,45.7c1.56-1.09,2.76-2.65,4.22-3.87,16.61-13.87,40.53-13.94,57.16-.07,1.49,1.24,2.94,2.74,4.32,4.12-.56.28-1.58,1.01-2.28,1.41-.14.08-.15.39-.46.45-.91.19-1.2-.44-1.46-.47-.41-.05-2.21-.06-2.56.02-.06.01-.78.41-1.05.54-3.44,1.62-4.81,5.24-4.06,8.96-1.98.69-3.77,2.11-3.96,4.4-1.57-.58-2.84-.18-4.19.73-.23.16-.31.49-.57.64-.82.48-3.42.2-4.41,1.29l-.97.85h18.57c-.26.88-.86,1.99-.99,2.77-.34,2.01.46,2.66,2.37,2.51,0,.03.16.09.18.17-1.32-.11.29,1.1.51,1.41.51.7.45,2.94.77,4.05.8,2.83,5.02,1.08,6.97.7.01.07.69.93.86,1.23-.12.11-.23.23-.34.35-.48.54-2.04,1.23-2.84,1.93-1.04.92-2.66,3.04-3.35,4.23l-7.74-5.55c-1.39-1.26-3.62-3.1-5.35-3.85-5.36-2.32-8.14,3.91-12.36,5.88.14-4.5-4.28-6.34-4.77-10.16-.33-2.6,1.78-5.58,2.38-8.2.76-3.33.05-7.02-2.6-9.26.97,2.08,1.61,3.83,1.33,6.2-.53,4.53-6.05,9.07-4.29,13.63,1.13,2.91,4.51,5.14,5.02,8.33-.24,1.04-.29,2.33-1.72,1.76-.39-3.46-4.82-5-5.77-8.62l-.42-2.65c-.15,1.44-.38,3.3-.06,4.72.71,3.12,3.85,5.03,4.53,8.13-.66.27-1.9,1.29-2.53,1.38-.97.13-2.8-1.42-4.43-1.39-1.4.03-4.55,1.63-4.95,1.57-.53-.09-3.94-2.65-4.66-3.17-2.38-1.75-4.67-4.58-7.99-3.9-1.4.28-4.36,2.44-5.57,3.4-.52.41-1.01,1.35-1.85,1.41-.96-2.52-2.04-4.27-4.13-5.98l1.38-2.29c.37.24,3.18,1.07,3.74,1.18s1.64.31,2.1.13c.11-.04.14-.23.18-.26.18-.12.37.01.56-.39.26-.55.27-1.66.47-2.33.11-.37.47-.59.51-.8.07-.3-.08-1.3,0-1.41.05-.06.4.04.51,0,.85-.34.69-1.77.34-2.46,2.05.24,3.35-1.05,2.06-2.99-.1-.52-.26-.89-.34-1.41h17.71c-.96-2.7-4.19-3.51-6.71-2.99,1.28-2.69-.78-6.44-3.69-6.69-1.06-.09-2.46.15-3.28.88-.35.31-1.02,1.69-1.23,1.75-.33.1-1.58-.7-2.12-.51-.08-.91-.35-2.05-.86-2.82.21-.04,1.1-.7,1.29-.88,1.35-1.36,1.88-3.88.3-5.28-1.39-1.23-3.39-1.28-5.14-1.73-.75-.19-1.6-.57-2.3-.73ZM57.29,74.03h11.87c-.27-1.15-1.41-1.82-2.52-1.92-.47-.04-1.06.2-1.09.16-.02-.02-.02-.45-.13-.66-.94-1.69-3.57-1.23-4.49.24-.14.22-.17.71-.21.75-.15.13-3.29.05-3.42,1.43Z"/><path class="bu" d="M79.31,87.4c.88.52,2.69,1.19,3.69,1.05.47-.07,2.27-.97,2.72-1.26.28-.18.36-.49.58-.64,1.74-1.16,3.43-1.54,5.44-.87,2.6.86,3.42,3.21,6.6,1.93,1.95-.78,1.62-2.02,4.22-1.56.74.13,1.52.26,2.22.4s.94.53,1.53.61c-.81,1.7-1.58,3.41-2.41,5.1l-.77-.18h-57.19c-.23-1.27-.4-2.62-.69-3.87,1.01-.24,2.3-.46,3.26-.8,1.46-.52,2.16-1.59,4.04-1.3,1.38.21,4.02,1.85,5.48,2.48,6.47,2.8,7.87,2.42,14.05-.64,1.07-.53,2.3-1.52,3.36-1.85.55-.17-.01,1.19.42,1.4l-1.46,3.52c1.13-1.09,2.18-2.71,2.67-4.22.75-.37.81.09,1.03.7-.29.71-.78,1.36-.94,2.11.79-.52,1.57-1.36,2.15-2.11Z"/><path class="i" d="M82.23,80.54c4.22-1.97,7.01-8.2,12.36-5.88,1.73.75,3.96,2.58,5.35,3.85l7.74,5.55c-.45.77-.96,2.12-1.38,2.99-.59-.08-.85-.48-1.53-.61-.7-.13-1.48-.27-2.22-.4-2.6-.46-2.27.78-4.22,1.56-3.19,1.28-4.01-1.07-6.6-1.93-2.01-.67-3.71-.29-5.44.87-.22.15-.31.45-.58.64-.45.3-2.25,1.19-2.72,1.26-.99.14-2.81-.52-3.69-1.05,1.45-1.88,2.85-4.42,2.92-6.86Z"/><path class="av" d="M43.88,83.71c.84-.06,1.34-1,1.85-1.41,1.21-.97,4.16-3.12,5.57-3.4,3.32-.67,5.61,2.16,7.99,3.9.72.53,4.13,3.08,4.66,3.17.39.06,3.55-1.54,4.95-1.57,1.64-.03,3.47,1.52,4.43,1.39.64-.09,1.87-1.11,2.53-1.38.24,1.11.2,1.89,0,2.99-.43-.21.13-1.57-.42-1.4-1.06.32-2.28,1.31-3.36,1.85-6.18,3.06-7.58,3.44-14.05.64-1.47-.64-4.1-2.27-5.48-2.48-1.88-.28-2.57.78-4.04,1.3-.96.34-2.25.56-3.26.8-.34-1.49-.83-2.97-1.38-4.4Z"/><path class="u" d="M103.9,92.15h-57.96c-.01-.06.01-.12,0-.18h57.19s.77.18.77.18Z"/><path class="p" d="M51.96,57.14c.55-.18,1.79.61,2.12.51.2-.06.88-1.44,1.23-1.75.82-.73,2.22-.98,3.28-.88,2.91.25,4.97,4,3.69,6.69,2.52-.51,5.75.29,6.71,2.99h-17.71c-.4-2.52.49-2.39.69-4.13.1-.86.08-2.56,0-3.43Z"/><path class="bc" d="M103.39,61.71c.96,1.01.5,1.86.17,2.99h-18.57s.97-.85.97-.85c1-1.09,3.6-.81,4.41-1.29.27-.16.34-.49.57-.64,1.35-.91,2.61-1.31,4.19-.73.18-2.29,1.98-3.71,3.96-4.4.41,2.05,2.16,4.59,4.3,4.93Z"/><path class="bc" d="M57.29,74.03c.14-1.38,3.27-1.3,3.42-1.43.04-.03.07-.53.21-.75.92-1.47,3.55-1.93,4.49-.24.11.2.11.63.13.66.04.04.62-.21,1.09-.16,1.1.1,2.25.77,2.52,1.92h-11.87Z"/><path class="bi" d="M77.59,82.83c.13,1.13-.16,2.79-.52,3.87-.49,1.51-1.54,3.13-2.67,4.22l1.46-3.52c.2-1.11.24-1.88,0-2.99-.68-3.1-3.81-5.01-4.53-8.13-.32-1.42-.09-3.28.06-4.72l.42,2.65c.95,3.61,5.38,5.16,5.77,8.62Z"/><path class="ad" d="M82.23,80.54c-.08,2.44-1.47,4.98-2.92,6.86-.58.75-1.36,1.59-2.15,2.11.17-.76.66-1.41.94-2.11.82-2.01,1.56-4.12,1.2-6.34-.51-3.19-3.89-5.41-5.02-8.33-1.77-4.56,3.76-9.1,4.29-13.63.28-2.37-.36-4.12-1.33-6.2,2.65,2.24,3.36,5.93,2.6,9.26-.6,2.63-2.72,5.6-2.38,8.2.49,3.82,4.91,5.66,4.77,10.16Z"/><path class="s" d="M78.11,87.4c-.22-.61-.28-1.08-1.03-.7.35-1.08.64-2.74.52-3.87,1.43.57,1.48-.72,1.72-1.76.36,2.21-.38,4.32-1.2,6.34Z"/><path class="bk" d="M8.79,105.35c.11-1.19.2-2.4.37-3.58,1.56-10.87,5.69-23.83,16.73-27.9,1.74,2.39,3.46,4.74,5.7,6.67,1.27,1.09,3.63,2.96,5.23,3.27,1.13.21,2.46.19,2.88-1.11.37-1.14.15-3.65-.12-4.79-.01-.06.02-.13,0-.18h.17c2.09,1.72,3.17,3.46,4.13,5.98.54,1.43,1.03,2.91,1.38,4.4.29,1.25.45,2.6.69,3.87.01.06-.01.12,0,.18.45,2.5.71,5.12,1.2,7.57.67-.13,1.82.02,2.58,0,.1.53-.26.34-.59.35-.63.02-1.26-.02-1.88,0-.19.02-.08-.23-.1-.36-.21.04-.13.32-.29.35-.17.04-.95.04-1.09,0,.09-.54-.02-.42-.33-.62-.51-.33-3.36-1.3-3.4-1.57.87-3.3.79-6.75.64-10.13l-.88,5.17-1.18,4.51c-2.51-1.03-5.07-3.17-6.64-5.43-2.48-3.55-4.13-8.37-7.55-11.11-.31-.25-.72-.65-1.11-.71.52.77,1.31,1.32,1.89,2.03,3.51,4.28,4.97,9.65,9.14,13.53.88.82,1.97,1.39,2.9,2.13-3.56,2.31-5.01,7.09-4.81,11.26l.34,2.55c-.04-.26-3.81-2.34-4.43-2.76-3.51-2.42-7.05-5.5-10.02-8.58-1.15-1.19-2.22-2.65-3.43-3.79l4.1,8.04c2.35,3.94,4.73,7.95,7.94,11.23l-7.74,3.78c3.68.31,7.37-.19,11.01-.88-1.67,1.55-3.83,2.37-5.5,3.87l-9.46,4.05c-.66-.35-1.21-.8-1.89-1.14.42-.91.89-1.86,1.2-2.81,1.1-3.32,1.38-6.16.8-9.63-.08-.5-.82-3.89-.98-4.01-.2-.15-.47.21-.59.36-1.38,1.75-2.3,5.05-2.94,7.21-.05.17-.03.4-.25.35-.77-3.25-2.2-6.23-4.1-8.92.09-.89.23-1.8.32-2.69Z"/><path class="b" d="M30.98,123.65c5.43-.19,13.82,1.99,18.36,5.06,2.82,1.91,4.6,5.96,4.99,9.33.08.68-.01,1.32.05,1.98-2.76,1.34.06,3.95,1.72,4.75-.42.15.17.27.29.32.62.26,1.46.46,1.95.91-.77.04-1.56-.04-2.33,0-.25.01-.5.17-.59.18-1.88.08-3.79-.06-5.68,0-.75-.83-1.2-2.07-1.82-2.98-2.77-4.04-6.61-7.42-10.39-10.4v2.55c0,2.61,4.14,7.43,6.19,8.89-.27-.06-.58-.15-.81-.3-6.65-4.19-12.57-9.41-19.07-13.75-1.09-.73-2.53-1.27-3.5-2.14-.25-.23-.6-.39-.51-.7.86-.25,1.58-1.18,2.33-1.56,2.35-1.2,6.24-2.04,8.84-2.14Z"/><path class="v" d="M26.68,122.6l-2.06,1.41c1.12.12,2.18-.4,3.27-.53.04,0,.3.19.57.16.67-.06,2.09-.64,2.52.02-2.6.09-6.5.94-8.84,2.14-.75.38-1.47,1.31-2.33,1.56-.09.32.26.48.51.7-1.02-.46-2.11-.89-3.1-1.41l9.46-4.05Z"/><path class="ae" d="M45.26,45.7c.7.16,1.55.53,2.3.73,1.74.45,3.74.5,5.14,1.73,1.58,1.4,1.05,3.92-.3,5.28-.18.19-1.08.84-1.29.88-1.12.19-4.35-1.22-5.78-1.39-3.68-.43-2.41,1.14-2.46,3.59s-1.12,2.25-2.25,3.69c-.27.35-1.13,2.16-1.29,2.2-.48.12-.8-2.21-.98-2.69-.49-1.27-1.61-2.32-2.95-1.51-2.47,1.5-1.64,6.37.68,7.52.22.11,1.62.33,1.27.72-.63.69-2.43-.32-2.84-1.05-.93.99-1.95,2.08-3.35,2.28.08-2.58-.88-4.18-1.46-6.51-.91-3.66-1.11-8.26,1.22-11.43.31-.42.98-.88,1.18-1.26.21-.41.18-.97.35-1.4.51-1.25,1.11-1.59,1.03.18,2.95-3.93,7.75-2.51,11.78-1.58Z"/><path class="bq" d="M26.68,122.6c1.68-1.5,3.84-2.32,5.5-3.87-3.63.69-7.32,1.19-11.01.88l7.74-3.78c-3.21-3.28-5.59-7.29-7.94-11.23l-4.1-8.04c1.22,1.14,2.29,2.6,3.43,3.79,2.97,3.08,6.51,6.17,10.02,8.58.62.43,4.39,2.5,4.43,2.76,0,.01-.16.09-.17.17.48-.09.69.15,1.03.36.41.24.8.47,1.2.7,0,.12,0,.23,0,.35-.42.13-.31.47-.35.79-.2,1.59-.48,3.33-.51,4.84v.18c-1.02.42-2.01,1.39-2.98,1.97-1.65.97-3.35,1.63-5.1,2.43-1.09.12-2.15.65-3.27.53l2.06-1.41Z"/><path class="cj" d="M34.76,111.69l-.34-2.55c-.2-4.17,1.25-8.95,4.81-11.26-.94-.74-2.02-1.31-2.9-2.13-4.17-3.88-5.63-9.25-9.14-13.53-.58-.71-1.37-1.26-1.89-2.03.39.06.8.46,1.11.71,3.42,2.74,5.07,7.55,7.55,11.11,1.58,2.26,4.13,4.4,6.64,5.43l1.18-4.51.88-5.17c.16,3.38.23,6.83-.64,10.13.04.27,2.89,1.24,3.4,1.57.31.2.43.09.33.62-.16-.05-.1-.44-.34-.35-.42,1.02-1.1,1.89-1.53,2.93-1.02,2.49-1.47,5.65-1.23,8.33.07.73.45,1.3.52,1.76.12.81-.35,1.23-1.03,1.49-1,.38-1.02.12-1.85.03-.32-.03-.55.28-.21-.29,2.83-.11,1.87-.76,1.72-2.55-.07-.83.04-1.71,0-2.55.27-3.04.36-4.93,1.86-7.68.2-.37.82-1.03.89-1.21.12-.3-.54-.45-.69-.52-.53-.23-1.08-.28-1.54-.45-1.12-.41-1.81-1.28-3.09-.43-2.43,1.62-3.55,6.47-3.79,9.23-.01.13-.16.34-.17.61-.05,1.3.12,2.52.35,3.79-.34-.2-.56-.44-1.03-.36.02-.08.18-.16.17-.17Z"/><path class="r" d="M41.64,118.2c.27.07,2.32,1.75,3.1,2.11,2.67,1.26,6.64,2.24,9.57,2.62.39.05,2.9.34,3,.23h0l.18,1.43c.63,5.03,3.15,10.01,6.51,13.66-1.86.09-3.87.24-5.71.58-1.04.19-2.97.72-3.92,1.18-.06-.66.03-1.29-.05-1.98-.38-3.37-2.17-7.42-4.99-9.33-4.53-3.07-12.93-5.25-18.36-5.06-.43-.66-1.85-.07-2.52-.02-.27.02-.53-.17-.57-.16,1.75-.81,3.46-1.47,5.1-2.43.97-.57,1.96-1.55,2.98-1.97.62-.25,5.16-1,5.68-.88Z"/><path class="be" d="M51.96,113.98c3.23,1.52,7.46,2.88,10.89,3.79,0,0-1.27.38-1.99.65-.85.32-1.78.68-2.54,1.19s-1,1.88-1.02,3.56c-.1.1-2.62-.18-3-.23-2.92-.38-6.9-1.36-9.57-2.62.17-1.13,1.23-2.34,1.98-3.17,1.36-1.52,3.16-3.1,5.25-3.17Z"/><path class="cg" d="M51.96,113.98c-2.09.07-3.89,1.65-5.25,3.17-.75.83-1.8,2.04-1.98,3.17-.77-.36-2.82-2.05-3.1-2.11-.76-1.55-2.26-2.68-2.75-4.4.45.08.65.2,1.2.18-.34.57-.11.26.21.29.84.09.86.35,1.85-.03.69-.26,1.15-.68,1.03-1.49,2.26-.05,4.59-.8,6.71-1.58.76.89,1.57,1.73,2.06,2.82Z"/><path class="ar" d="M42.33,99.02c-.91,1.58-1.82,3.15-2.32,4.93-.11.39-.6,2.31-.6,2.55v3.43c.75.2,1.31.19,2.06,0l.17.7c-.16-.61.13-1.3.17-1.76.05.84-.07,1.72,0,2.55.14,1.8,1.11,2.44-1.72,2.55-.55.02-.75-.09-1.2-.18-1.29-.23-1.11-.34-2.06-.88-.4-.23-.8-.47-1.2-.7-.22-1.27-.4-2.49-.35-3.79.01-.27.16-.48.17-.61l2.41.7c.43-1.92.96-4.07,1.75-5.87.24-.56,1.55-3.06,1.86-3.38.27-.28.51-.28.87-.25Z"/><path class="w" d="M36.83,112.92c.95.54.78.65,2.06.88.49,1.72,1.99,2.85,2.75,4.4-.51-.12-5.06.63-5.68.88v-.18c.42-1.67.87-3.89.86-5.63,0-.12,0-.23,0-.35Z"/><path class="r" d="M35.97,118.9c.03-1.52.31-3.25.51-4.84.04-.32-.07-.66.35-.79,0,1.74-.44,3.96-.86,5.63Z"/><path class="ci" d="M42.33,99.02c-.36-.02-.6-.03-.87.25-.31.32-1.62,2.82-1.86,3.38-.79,1.8-1.31,3.95-1.75,5.87l-2.41-.7c.24-2.76,1.36-7.61,3.79-9.23,1.28-.85,1.96.02,3.09.43Z"/><path class="bt" d="M42.33,99.02c.46.17,1.01.22,1.54.45.15.07.81.21.69.52-.07.18-.68.84-.89,1.21-1.5,2.76-1.59,4.64-1.86,7.68-.04.46-.33,1.15-.17,1.76l-.17-.7c-.75.2-1.31.2-2.06,0v-3.43c0-.24.49-2.16.6-2.55.5-1.78,1.41-3.35,2.32-4.93Z"/><path class="ab" d="M51.1,54.32c.51.76.78,1.91.86,2.82s.1,2.57,0,3.43c-.19,1.74-1.09,1.61-.69,4.14.08.51.25.89.34,1.41.31,1.66.68,2.81-1.64,2.47-.48-.07-.7-.34-1.11-.53,0,.48.48.65.69,1.06.35.69.51,2.12-.34,2.46-1.34-.34-2.37-1.22-3.61-1.76-.09,1.47,2.23,1.57,2.71,1.98.26.22.07.95.38,1.19-.05.2-.4.43-.51.8-.2.67-.21,1.78-.47,2.33-.19.41-.38.27-.56.39-2.46.09-4.78-1.29-6.88-2.46-.2-.61-1.01-1.03-1.46-1.58-1.02-1.26-1.71-3.06-1.98-4.66-.05-.29.11-.3-.34-.26.35,2.41.52,5.47,1.52,7.69.4.89,1.26,1.64,1.58,2.52.02.05-.01.12,0,.18-1.1,2.35-.53,5.06-3.9,3.55-3.27-1.45-6.08-5.23-7.96-8.22,2.37-1.11,3.35-2.9,3.44-5.54,1.4-.2,2.43-1.3,3.35-2.28.4.73,2.21,1.74,2.84,1.05.35-.39-1.05-.61-1.27-.72-2.32-1.15-3.15-6.02-.68-7.52,1.33-.81,2.46.24,2.95,1.51.18.48.5,2.8.98,2.69.16-.04,1.02-1.85,1.29-2.2,1.13-1.44,2.19-1.26,2.25-3.69s-1.22-4.02,2.46-3.59c1.43.17,4.66,1.58,5.78,1.39ZM50.92,60.14c-.05-.07-1.32-.58-1.53-.63-1.06-.29-1.87-.39-2.92,0-1.24.46-1.73,1.7.03,1.12.14-.05.14-.3.26-.33.31-.07,1.68-.06,2.04-.02.31.04.25.31.38.35.33.11,1.2.44,1.48.38.18-.04.35-.76.27-.88ZM37.17,63.47c.2-.19.21-1.67.18-2.03-.1-1.25-.28-1.45-1.55-1.31-.28.84.8.38,1.01,1,.17.5-.05,1.49.03,2.09.03.24.09.51.34.26ZM47.49,62.41c-.15.16.02,1.79,1.03,1.32,1.51-.71-.59-1.77-1.03-1.32Z"/><path class="ab" d="M70.71,94.62l2.23.35c-.27.08-.68.18-.9.35-.47.35-2.13,2.01-2.44,2.48-1.74,2.66,1.48,3.4,3.11,2.18.19-.14.4-.19.62-.3.35-.18,1.61-.88,1.9-.81.4.1.86.99,1.17,1.28,1.59,1.47,4.33,3.2,4.89,5.38.19.75.15,1.58-.73,1.73-.77.14-.91-.73-1.34-1.2-.81-.89-1.65-1.78-2.49-2.64.23,1.04,3.8,4.15,2.06,5.02-.25.13-.66.15-.92.06-.2-.07-1.57-2.07-1.92-2.44-.13-.14-.59-.7-.78-.52.47.91,2.82,3.72,1.33,4.45-.59.29-1.65-.84-1.88-1.33-.28-.61-.13-1.38-.84-1.79-.23-.13-.54-.07-.76-.28-.2-.19-.22-.69-.6-.97-.42-.3-.83-.18-1.19-.36-.25-.12-1.08-1.12-1.16-1.13-.36-.08-.79.06-1.17,0-.34-.06-.52-.41-.85-.54-.71-.28-1.71-.19-2.33.28-.3.23-.81,1.3-.95,1.31-.04,0-.29-.32-.69-.36-.45-.04-1.17.18-1.64.28-4.84,1.09-9.3,3.76-14.1,4.93-1.83.45-3.81.83-5.68.97-.24-2.69.21-5.85,1.23-8.33.42-1.03,1.1-1.91,1.53-2.93.24-.09.18.3.34.35.14.04.92.04,1.09,0,.15-.03.08-.31.29-.35.02.12-.09.37.1.36.63-.02,1.26.02,1.88,0,.33-.01.69.18.59-.35,4.11-.12,13.69-.88,17.21-2.72,1.51-.79,1.87-1.98,3.78-2.38Z"/><path class="by" d="M39.58,77.72c-.32-.88-1.18-1.63-1.58-2.52-1-2.22-1.16-5.28-1.52-7.69.44-.04.29-.03.34.26.27,1.61.96,3.4,1.98,4.66.45.56,1.26.97,1.46,1.58,0,0-.19-.02-.17.09.03.12.96,1.28,1.03,1.32l-1.38,2.29h-.17Z"/><path class="h" d="M47.15,76.49s-.07.22-.18.26c-.46.18-1.56-.03-2.1-.13s-3.38-.95-3.74-1.18c-.07-.05-1-1.2-1.03-1.32-.03-.1.17-.08.17-.09,2.1,1.17,4.42,2.55,6.88,2.46Z"/><path class="d" d="M49.21,71.57c-.11.05-.46-.06-.51,0-.09.1.07,1.11,0,1.41-.31-.24-.12-.97-.38-1.19-.48-.4-2.8-.51-2.71-1.98,1.24.54,2.27,1.42,3.61,1.76Z"/><path class="bv" d="M49.55,69.1c-.21-.41-.69-.58-.69-1.06.4.2.63.46,1.11.53,2.32.34,1.95-.81,1.64-2.47,1.29,1.94-.02,3.23-2.06,2.99Z"/><path class="ao" d="M50.92,60.14c.08.12-.1.84-.27.88-.27.06-1.14-.27-1.48-.38-.13-.04-.07-.31-.38-.35-.36-.05-1.73-.06-2.04.02-.12.03-.12.28-.26.33-1.76.58-1.27-.66-.03-1.12,1.05-.39,1.86-.3,2.92,0,.21.06,1.49.57,1.53.63Z"/><path class="ba" d="M37.17,63.47c-.25.25-.31-.02-.34-.26-.07-.6.14-1.59-.03-2.09-.21-.62-1.28-.16-1.01-1,1.28-.14,1.46.07,1.55,1.31.03.36.02,1.84-.18,2.03Z"/><path class="y" d="M47.49,62.41c.43-.45,2.54.61,1.03,1.32-1.01.48-1.18-1.16-1.03-1.32Z"/><path class="ay" d="M73.29,94.79l-3.49,4.1c-.24.41.66,1.27.98,1.18.08-.02.18-.06.32-.14.23-.13.45-.27.73-.38.57-.23,3.55-1.82,3.74-1.7.02.01.16.17.28.37,1.06,1.74,3.96,3.35,5.18,5.19.4.61.9,1.9.86,2.64-.04.7-.4,1.39-1.04,1.66-.28.12-.73.05-.82.13s-.29,1.09-.9,1.45c-.46.27-1.03.17-1.36.37-.25.15-.43.77-1,.92s-1.02-.15-1.31-.09c-.26.05-.81.78-1.59.83-1.07.08-1.09-.79-1.37-.86s-.9.76-1.79.07c-.26-.2-.4-.71-.63-.77-.53-.15-.91.59-1.88-.36-.15-.15-.24-.5-.26-.52-.05-.04-.65.35-1.24,0-.26-.16-.59-1.01-.89-1.25-.54-.43-1.11-.11-1.26-1.19-.04-.26.13-.65.07-.75-.33-.52-1.92.19-2.42.35-4.26,1.42-8.11,3.55-12.29,5.11-2.12.79-4.45,1.53-6.71,1.58-.07-.46-.45-1.03-.52-1.76,1.87-.13,3.85-.52,5.68-.97,4.8-1.17,9.26-3.84,14.1-4.93.47-.11,1.19-.32,1.64-.28.4.04.65.36.69.36.13,0,.65-1.07.95-1.31.62-.48,1.62-.56,2.33-.28.33.13.5.47.85.54.37.07.81-.07,1.17,0,.08.02.91,1.01,1.16,1.13.37.18.78.06,1.19.36.38.28.4.77.6.97.22.21.54.14.76.28.7.41.55,1.18.84,1.79.23.5,1.29,1.62,1.88,1.33,1.5-.73-.85-3.54-1.33-4.45.18-.18.64.38.78.52.35.37,1.72,2.37,1.92,2.44.26.09.66.07.92-.06,1.74-.86-1.83-3.97-2.06-5.02.84.86,1.68,1.75,2.49,2.64.43.47.56,1.34,1.34,1.2.88-.15.92-.99.73-1.73-.56-2.18-3.3-3.91-4.89-5.38-.31-.29-.77-1.17-1.17-1.28-.28-.07-1.54.62-1.9.81-.22.11-.43.16-.62.3-1.75,1.3-4.85.49-3.11-2.18.3-.47,1.97-2.12,2.44-2.48.22-.17.63-.27.9-.35l-2.23-.35c.84-.18,1.8-.28,2.58.18ZM67.74,104.16c-.98-.99-2.39,1.09-2.64,1.89-.16.53.16,1,.74.75.62-.27,2.61-1.93,1.9-2.64ZM70.54,105.88c.39-.55-1.23-1.07-2.02-.74-.45.19-2.02,2.12-1.92,2.56.33,1.35,2.31-.85,2.85-1.25.3-.22,1.05-.51,1.09-.56ZM70.09,108.59c.4-.3,2.2-1.35,2.27-1.47.21-.36-.66-1-1.06-1.06-1.71-.22-4.02,3.56-1.92,3.14.49-.1.49-.45.71-.61ZM72.69,107.35c-.62,0-1.73,2.12-1.64,2.66.24,1.53,2.88-1.11,2.51-2.01-.08-.19-.66-.65-.87-.65ZM73.89,109.05c-1.84,1.94,1.14,2.04.94,1.16-.03-.15-.78-.93-.94-1.16Z"/><path class="bj" d="M70.09,108.59c-.21.16-.22.51-.71.61-2.1.43.21-3.36,1.92-3.14.39.05,1.27.69,1.06,1.06-.07.12-1.87,1.18-2.27,1.47Z"/><path class="l" d="M70.54,105.88c-.04.05-.79.34-1.09.56-.55.4-2.52,2.6-2.85,1.25-.11-.44,1.47-2.37,1.92-2.56.79-.33,2.41.2,2.02.74Z"/><path class="bl" d="M72.69,107.35c.21,0,.79.46.87.65.37.9-2.27,3.55-2.51,2.01-.08-.54,1.03-2.66,1.64-2.66Z"/><path class="br" d="M67.74,104.16c.71.72-1.28,2.38-1.9,2.64-.57.25-.9-.22-.74-.75.25-.8,1.66-2.88,2.64-1.89Z"/><path class="bg" d="M73.89,109.05c.15.23.9,1.01.94,1.16.2.88-2.78.78-.94-1.16Z"/><path class="ak" d="M110.96,45.87c2.61-1.31,6.62-2.01,9.29-.62.77.4,1.45,1.36,1.88,1.57s1.59.02,2.37.41c2.72,1.37,4.46,5.06,4.69,8.06.19,2.46-1.09,6.8.27,8.7.09.12.91.99.98,1.02.5.24,1.08-.55,1.68-.65.01.23,0-.23,0,0,0,0-.62,1.8-1.02,2.21-.77.78-1.87.22-2.59-.36-2.12-1.7-1.36-5.32-2.85-7.47-.17-.24-1.41-1.41-1.11-.63.06.15,1.16,1.54.42,1.68-.19.03-2.05-1.08-2.57-1.24-2.45-.76-4.9.92-7.77.21-2.63-.65-1.74-3.43-3.41-4.78-.77-.62-1.34-.53-2.15-.35-.18.04-.79.1-.86.18-1.3-1.39-2.1-2.9-4.22-3-1.98-.09-3.51,2.1-3.69,3.97-.16,1.75.59,4.64,1.71,5.99.32.38.9.45,1.38.96-2.14-.34-3.89-2.88-4.3-4.93-.75-3.71.62-7.33,4.06-8.96.27-.13.99-.53,1.05-.54.35-.08,2.14-.07,2.56-.02.27.03.55.67,1.46.47.3-.06.32-.37.46-.45.7-.4,1.72-1.13,2.28-1.41ZM117.78,47.34c-2.39-.97-4.96-.29-6.74,1.51-.2.2-1.43,1.77-1.28,1.94,2.45-2.63,5.63-3.65,9.11-2.64l-1.09-.81ZM119.64,56.78c1.07.11,2.27-.08,3.35,0-.09-.24-.9-.3-1.14-.33-.93-.1-1.17-.24-1.73-.37-.29-.07-.65.06-.96-.04-3.16-.98-2.35-4.82-5.07-5.72-.62-.2-1.99-.54-2.45.12,3.79-1.05,3.36,2.67,4.9,4.58.72.89,1.99,1.65,3.1,1.76Z"/><path class="ae" d="M109.06,53.62c.82-.18,1.39-.28,2.15.35,1.67,1.36.78,4.14,3.41,4.78,2.88.71,5.32-.97,7.77-.21.52.16,2.38,1.28,2.57,1.24.73-.13-.36-1.52-.42-1.68-.31-.78.94.39,1.11.63,1.49,2.15.72,5.78,2.85,7.47.72.57,1.82,1.13,2.59.36.4-.41,1.02-2.21,1.02-2.21.07,1.78-.35,3.37-1.71,4.5-.5.42-1.12.76-1.78.6-.04,0-.52-.66-.64-.52-.49.59,1.88,1.78,2.4.88-.27,1.35-1.73,2.5-3.03,2.62-1.06.1-1.71-.29-2.65-.68-.09.08.94,1.21,1.03,1.41-2.64-.61-4.47-3.65-3.96-6.33l-1.51,1.01c-.45.15-1.49.3-1.76-.22-.2-.38,1.09-.27,1.38-.34,1.72-.46,2.77-2.85,2.7-4.53-.03-.76-.75-2.97-1.49-3.22-.58-.2-1.92-.02-2.42.36-.65.5-.98,3.57-1.62,3.42-.23-.05-1.6-1.72-1.79-2.05-.25-.45-.49-1.58-.55-1.64-.05-.05-.65.24-1.34.06-2.58-.7-2.17-4.91-4.33-6.04Z"/><path class="al" d="M108.2,53.79s.07.36-.1.36c-1.16.01-2.52-1.41-3.66.28-.83,1.23-.9,5.5-.73,7.02.03.27.35.25.45.76.53,2.68-1.61,4.95-1.31,6.44.11.55,1.23.92,1.78.79.13-.03.11-.31.24-.34.65-.17,1.12.19.56.6-.13.1-.52.07-.5.27-1.91.15-2.71-.5-2.37-2.51.13-.78.73-1.89.99-2.77.33-1.13.79-1.98-.17-2.99-.48-.51-1.06-.58-1.38-.96-1.12-1.35-1.88-4.24-1.71-5.99.17-1.86,1.71-4.06,3.69-3.97,2.12.1,2.92,1.61,4.22,3Z"/><path class="ch" d="M119.64,56.78c-1.11-.11-2.38-.86-3.1-1.76-1.53-1.91-1.11-5.63-4.9-4.58.45-.67,1.83-.33,2.45-.12,2.72.9,1.91,4.74,5.07,5.72.31.1.68-.03.96.04.56.13.8.27,1.73.37.24.03,1.05.09,1.14.33-1.08-.08-2.29.11-3.35,0Z"/><path class="cf" d="M117.78,47.34l1.09.81c-3.48-1.01-6.66.01-9.11,2.64-.15-.17,1.08-1.74,1.28-1.94,1.78-1.81,4.35-2.48,6.74-1.51Z"/><path class="cl" d="M132.75,126.29c1.28.74,2.69,1.26,4,1.94-8.27,5.01-15.35,11.92-23.73,16.72,1.77-2.03,4.62-4.13,4.73-7.04-.8.41-1.67.73-2.45,1.18-3.56,2.07-7.46,4.99-10.54,7.79l-11.35-.7v-.18c2.08-.51,5.15-1.69,6.33-3.64,1.01-1.66-.31-2.11-1.6-2.71-1.43-.67-3.05-.96-4.68-1.2-1.33-.19-2.7-.2-4.02-.46.18-.25.33-.34.61-.43,1.25-.41,3.08-.41,4.51-.84,2.52-.76,5.17-2.77,6.61-5.03,3.37-5.27.84-10.99-5.54-7.87v-3.08c0-.05-.42-.76-.52-.88-.77-1-2.51-1.41-3.61-1.93,1.28-.8,3.05-1.07,4.56-1.14,2.9-.14,6.03.57,8.77.88,3.24.37,6.48.75,9.72,1.05l3.44,2.11c-1,.87-2.49,2.4-3.67,2.85-1.76.68-4.35.59-6.35,1.25-2.54.83-5.13,4.46-5.47,7.16.32.37,1.29-1.71,1.38-1.84.62-.88,1.53-2.04,2.35-2.7.26-.21.91-.75,1.26-.65-.96,1-1.98,1.98-2.83,3.09-.4.52-1.97,2.84-2.09,3.33-.08.32-.08.32.19.53.3.07.41-.08.6-.26.78-.73,1.75-2.45,2.58-3.34.7-.75,1.88-1.73,2.87-1.99.19-.05,1.05-.2,1.08.13-1.15,0-2.32.86-3.1,1.67-.3.31-2.49,3.01-2.55,3.2-.14.52.25.59.66.59.66,0,2.48-1.83,3.32-2.32.97-.56,1.42-.57,2.39-.86.14-.04.12-.31.25-.34.98-.24,2.93.11,4.09,0,1.9-.19,2.5-1.07,3.95-1.76,3.4-1.62,7.98-2.57,11.27-4.39"/><path class="bw" d="M99.21,126c1.04,1.18.51,3.31-.17,4.56-1.43,2.63-4.96,3.86-7.52,4.71.8-1.48,1.81-2.87,2.44-4.45.26-.64,1.06-3.78,1.21-3.95s.92-.44,1.19-.59c.16-.09.18-.3.36-.38.71-.33,1.9-.56,2.48.1Z"/><path class="ax" d="M131.08,120.49c-1.3,1.22-2.02,2.31-3.56,3.31-2.5,1.63-5.78,2.8-8.49,4.16-.59.3-1,.8-1.72,1.06-2.15.78-4.18.18-6.26.46-1.91.26-4.57,2.41-5.96,3.77-.21.2-.42.31-.17.62-.41,0-.81-.07-.66-.59.05-.2,2.25-2.89,2.55-3.2.78-.81,1.96-1.67,3.1-1.67-.03-.34-.89-.18-1.08-.13-1,.26-2.17,1.24-2.87,1.99-.83.89-1.8,2.62-2.58,3.34-.19.18-.3.33-.6.26-.26-.21-.26-.22-.19-.53.12-.49,1.69-2.8,2.09-3.33.84-1.11,1.86-2.09,2.83-3.09-.35-.11-1,.44-1.26.65-.82.67-1.72,1.83-2.35,2.7-.09.13-1.07,2.21-1.38,1.84.33-2.71,2.93-6.33,5.47-7.16,2-.66,4.58-.57,6.35-1.25,1.18-.45,2.66-1.98,3.67-2.85,1.57-1.36,3.5-3.68,4.99-4.75s2.56-.92,4.07-.03c1.22.71,3.26,3.18,4.01,4.43Z"/><path class="ca" d="M131.94,122.25c-.07.34,0,.54-.27.87-.06.07-1.32.99-1.45,1.07-3.29,1.83-7.87,2.77-11.27,4.39-1.46.69-2.05,1.57-3.95,1.76-1.16.12-3.11-.23-4.09,0-.13.03-.1.29-.25.34-.98.29-1.42.3-2.39.86-.84.49-2.66,2.31-3.32,2.32-.25-.31-.04-.41.17-.62,1.39-1.36,4.04-3.51,5.96-3.77,2.08-.28,4.11.32,6.26-.46.72-.26,1.13-.76,1.72-1.06,2.7-1.36,5.98-2.54,8.49-4.16,1.54-1,2.25-2.09,3.56-3.31.36.61.63,1.07.86,1.76Z"/><path class="ax" d="M104.94,69.98c-.02-.21.38-.18.5-.27.56-.41.1-.77-.56-.6-.13.03-.11.31-.24.34-.55.14-1.67-.24-1.78-.79-.3-1.49,1.84-3.76,1.31-6.44-.1-.52-.42-.49-.45-.76-.18-1.52-.1-5.79.73-7.02,1.14-1.69,2.5-.27,3.66-.28.17,0,.07-.34.1-.36.07-.07.68-.14.86-.18,2.16,1.13,1.75,5.34,4.33,6.04.69.19,1.29-.11,1.34-.06.06.06.3,1.19.55,1.64.18.33,1.55,1.99,1.79,2.05.64.15.97-2.92,1.62-3.42.5-.38,1.84-.56,2.42-.36.74.25,1.46,2.47,1.49,3.22.07,1.69-.98,4.08-2.7,4.53-.29.08-1.58-.04-1.38.34.27.51,1.31.37,1.76.22l1.51-1.01c-.52,2.69,1.32,5.72,3.96,6.33.35.72-.08,1.29-.37,2-1.07,2.6-3.67,6.25-6.04,7.72-.66.41-1.71.47-2.37.14l-1.38-2.46c-.3-.72-.54-1.64-.86-2.29l1.17-1.53c1.36-2.21,1.79-4.83,2.61-7.27l-1.29,2.29c-1.33,1.33-2.39,2.74-4.04,3.69-1.31.75-4.04,1.72-5.46,1.1-.98-.43-1.23-3.61-1.59-4.62.63.38,4.26-1.51,3.61-2.11-.36-.33-1.6.94-2.06,1.14-.67.3-1.43.29-2.06.62-.22-.31-1.83-1.52-.51-1.41-.02-.08-.17-.15-.18-.17ZM110.44,61.01c0-2.05-5.2-1.88-5.29-.79.46,1.68,1.37.51,2.62.44.96-.05,1.75.22,2.67.36ZM120.59,61.36c-1.42-.13-1.81.94-1.72,2.19.01.21.29,1.44.35,1.5.08.08.37.13.3-.22s-.3-2.27-.23-2.42c.18-.35,1.11-.65,1.3-1.05ZM107.82,63.95c.23-.24.34-1.08.05-1.29-.39-.29-1.12.25-1.56.28.03.67.88,1.66,1.51,1.01Z"/><path class="aw" d="M113.19,75.44c1.65-.95,2.71-2.37,4.04-3.69l1.29-2.29c-.82,2.44-1.25,5.06-2.61,7.27l-1.17,1.53c-.09-.18-.37-.46-.52-.7-.17-.3-.85-1.16-.86-1.23,0-.01.21-.06.17-.17l-1.89.35c.21-.33.84-.43,1.21-.61.08-.04.71-.32.34-.45Z"/><path class="m" d="M116.98,83c-.85-.44-1.06-1.71-1.38-2.46l1.38,2.46Z"/><path class="aj" d="M105.62,71.57c.64-.33,1.39-.32,2.06-.62.47-.21,1.71-1.47,2.06-1.14.65.6-2.99,2.49-3.61,2.11.36,1.01.61,4.19,1.59,4.62,1.42.62,4.15-.35,5.46-1.1.38.13-.26.41-.34.45-.37.17-1.01.28-1.21.61l1.89-.35c.03.11-.18.16-.17.17-1.95.38-6.17,2.13-6.97-.7-.32-1.11-.26-3.35-.77-4.05Z"/><path class="t" d="M110.44,61.01c-.92-.14-1.71-.41-2.67-.36-1.25.07-2.16,1.24-2.62-.44.09-1.09,5.3-1.26,5.29.79Z"/><path class="ck" d="M107.82,63.95c-.62.65-1.48-.34-1.51-1.01.44-.03,1.17-.57,1.56-.28.29.21.17,1.05-.05,1.29Z"/><path class="af" d="M120.59,61.36c-.19.4-1.12.7-1.3,1.05-.07.15.16,2.06.23,2.42s-.22.3-.3.22c-.05-.05-.33-1.29-.35-1.5-.09-1.26.3-2.32,1.72-2.19Z"/><path class="ac" d="M81.03,103.42c.51-.6.71-1.35,1.02-2.04.39-.9.33.37.4.68.46,1.82,2.27,2.95,3.8,3.86,2.96,1.76,7.82,4.06,11.12,4.82.74.17,1.96.05,2.41.61-.4,1.16-1.14,1.34-2.24,1.23-1.51-.14-4.84-1.57-6.36-2.21-3.16-1.33-5.99-3.22-9.29-4.31.04-.74-.46-2.03-.86-2.64Z"/><path class="f" d="M73.29,94.79c3.02-1.75,6.66,2.91,9.38,3.86,1.84.65,4.06.58,5.8,1.07.14.04.11.31.24.34,2.01.47,4.62.21,6.69.71.22.01.41-.07.59-.18,1.38.78,2.61,1.97,3.18,3.52.61,1.65,1.16,5.6.61,7.21-.46-.56-1.67-.44-2.41-.61-3.3-.76-8.16-3.06-11.12-4.82-1.53-.91-3.34-2.04-3.8-3.86-.08-.3,0-1.58-.4-.68-.3.69-.5,1.44-1.02,2.04-1.21-1.84-4.11-3.45-5.18-5.19-.12-.2-.26-.36-.28-.37-.19-.12-3.16,1.48-3.74,1.7-.28.11-.41.2-.64.33-.14.08-.33.16-.41.19-.33.09-1.22-.77-.98-1.18l3.49-4.1Z"/><path class="bb" d="M113.88,77.9c.1,2.25.2,5.56,2.4,6.78,2.99,1.66,6.07-1.44,7.84-3.61s3.1-4.65,3.87-7.22c4.76,1.19,9.09,2.94,12.39,6.77,4.87,5.66,5.68,15.9,5.84,23.15.03,1.39,0,2.83,0,4.14v4.05c0,.09-.45,1.37-.52,1.67l-1.2.18c-.2-.47-1.11-2.51-1.37-2.73-.12-.11-.33-.28-.33-.28,0,0-.15.72-.19.9l-.34-.18-.18.88c-.07-.03-.14-.18-.17-.18,1.16-5.6,1.42-11.37.86-17.07l-.88,9.22c-.44,3.44-1.4,10.5-3.17,13.29-1.27,2-1.08.72-1.73-.49-2.13-3.98-6.23-7.36-10.9-6.89.94-4.74,1.33-9.6,1.03-14.43l-.51,3.43-1.07,11.05-1,.65c-1.11.25-2.86,4.18-1.55,5.1-1.49,1.07-3.42,3.39-4.99,4.75l-3.44-2.11c-.53-2.17-.4-4.47-.69-6.69v-2.21c-.83-7.61-4.01-14.84-3.79-22.6-.31.07-.32.35-.35.61-.35,3.21.13,7.68.87,10.83-.37.11-.31.46-.38.76-.63,2.87-1.57,5.93-4.44,7.16-.05-.23-.25-.74-.34-1.06-.77-2.67-2.47-5.74-5.16-6.69,1.47-2.09,2.49-4.4,3.61-6.69.83-1.7,1.6-3.4,2.41-5.1.42-.88.93-2.22,1.38-2.99.69-1.18,2.31-3.31,3.35-4.23.8-.71,2.36-1.4,2.84-1.93ZM133.49,81.77c-.78.15-1.41.87-1.98,1.4-2.94,2.74-4.28,6.13-4.38,10.21.25.04.23-.31.29-.49.74-2.22,1.21-4.52,2.32-6.6.95-1.78,2.44-3.04,3.75-4.52ZM134.3,108.58c-.74-.28-2.85-.23-3.66-.07-.16.03-.54.35-.6.54,2.74-.13,5.33.88,7.74,2.11l-1.22-1.3c-.57-.42-1.73-1.07-2.27-1.28Z"/><path class="bm" d="M130.22,124.18c2.93.03,6.22.45,7.31-2.99.13-.41.2-1.35.3-1.54.06-.1,1.18-.79,1.5-1.19.37-.45.92-1.56,1.19-2.13.59-1.26,1.09-2.62,1.23-4.02.03-.09.09-.1.17-.09.03,0,.1.15.17.18l.18-.88.34.18c-.86,3.56-.68,9.03-.7,12.78,0,.22.01.69.01.69,0,0-3.37,1.99-5.16,3.07-1.31-.68-2.72-1.2-4-1.94"/><path class="cc" d="M132.8,122.77v-1.41c.1.35.12,1.01.17,1.41.03.23-.02.47,0,.7,1.8-.43,2.72-.57,3.61-2.29.25-.48.56-.58.51-1.3-.03-.49-.7-2.07-.96-2.55-.87-1.61-3.95-4.6-5.56-5.39-1.27-.63-3.65-1.4-5-.78.11-.69-.48-.16-.94,0-.11.04-.08-.17-.09-.17l1-.65,1.07-11.05.51-3.43c.3,4.83-.09,9.69-1.03,14.43,4.67-.47,8.77,2.91,10.9,6.89.64,1.21.46,2.49,1.73.49,1.77-2.8,2.73-9.85,3.17-13.29l.88-9.22c.56,5.7.3,11.47-.86,17.07-.08,0-.14,0-.17.09-.14,1.41-.64,2.76-1.23,4.02-.26.57-.82,1.67-1.19,2.13-.32.4-1.45,1.09-1.5,1.19-.1.19-.17,1.13-.3,1.54-1.09,3.44-4.38,3.02-7.31,2.99.13-.07,1.4-1,1.45-1.07.27-.33.2-.53.27-.87"/><path class="bm" d="M112.68,105.88c-2.04,2.09-3.61,4.76-6.14,6.3-.43.26-.9.37-1.26.56.72-1.98.94-4.07.52-6.16,2.87-1.23,3.81-4.29,4.44-7.16.06-.3,0-.65.38-.76.55,2.38,1.5,4.81,2.06,7.22Z"/><path class="c" d="M131.94,122.25c-.23-.69-.5-1.15-.86-1.76-.75-1.25-2.79-3.72-4.01-4.43-1.51-.89-2.62-1.01-4.07.03-1.31-.92.44-4.86,1.55-5.1,0,0-.02.21.09.17.46-.15,1.05-.69.94,0-1.02.47-2.08,2.36-2.06,3.52,1.57-.16,2.7.11,4.07.85,1.71.92,4.68,3.93,5.22,5.84v1.41"/><path class="bh" d="M113.88,112.04c-.25-1.93-.75-4.25-1.2-6.16-.57-2.41-1.51-4.84-2.06-7.22-.74-3.15-1.22-7.62-.87-10.83.03-.26.04-.54.35-.61-.23,7.77,2.95,14.99,3.79,22.6v2.21Z"/><path class="az" d="M133.49,81.77c-1.31,1.48-2.81,2.73-3.75,4.52-1.11,2.09-1.58,4.38-2.32,6.6-.06.19-.04.53-.29.49.1-4.08,1.44-7.47,4.38-10.21.57-.53,1.21-1.25,1.98-1.4Z"/><path class="ai" d="M99.6,98.67c.27.05.42.08.69.18,2.69.95,4.39,4.01,5.16,6.69v1.58s-.35-.88-.35-.88c-.08.02-.14.18-.17.18-.08,0-.14,0-.17-.09-.38-1.73-1.11-3.42-2.17-4.82-.73-.97-1.93-2.34-3.1-2.63l.11-.2Z"/><path class="g" d="M134.3,108.58c.54.21,1.7.86,2.27,1.28l1.22,1.3c-2.4-1.24-4.99-2.24-7.74-2.11.05-.18.44-.5.6-.54.81-.16,2.91-.22,3.66.07Z"/><path class="bx" d="M105.8,106.59c.42,2.09.2,4.18-.52,6.16-.69.38-.69.87-1.38,1.06,1.44-1.4,1.35-4.87,1.03-6.69-.04-.21.02-.48,0-.7.03,0,.09-.15.17-.18l.35.88v-1.58c.09.31.3.83.35,1.06Z"/><path class="bm" d="M103.9,113.8c-.86.84-4.17,1.25-5.16.61-.19-.12-.24-.33-.34-.43l1.45-.72c.52-.48,1.24-2.1,1.3-2.8.08.28.67-.07.8-.15,1.12-.62,2.84-1.82,2.98-3.2.31,1.82.41,5.29-1.03,6.69Z"/><path class="cb" d="M101.15,110.46c-.06.7-.78,2.32-1.3,2.8l-1.45.72c-.46-.44-.82-.62-.86-1.41,1.09.1,1.84-.08,2.24-1.23.55-1.61,0-5.56-.61-7.21-.57-1.55-1.8-2.74-3.18-3.52.04-.03.12-.12.17-.18,2.81.76,4,4.04,4.56,6.69.17.82.5,2.57.43,3.35Z"/><path class="bb" d="M99.6,98.67l-.11.2c1.17.3,2.37,1.66,3.1,2.63,1.06,1.4,1.79,3.09,2.17,4.82.03.09.09.1.17.09.02.22-.04.49,0,.7-.14,1.38-1.86,2.58-2.98,3.2-.13.07-.73.42-.8.15.07-.77-.26-2.52-.43-3.35-.56-2.65-1.75-5.93-4.56-6.69.24-.26.38-.68.68-.97.51-.49,1.47-.96,2.18-.97.37,0,.46.16.58.19Z"/><path class="bb" d="M125.57,111.16c1.35-.61,3.72.16,5,.78,1.62.8,4.69,3.79,5.56,5.39.26.48.93,2.06.96,2.55.05.72-.27.82-.51,1.3-1,.88-2.22,1.67-3.61,1.58-.05-.4-.07-1.05-.17-1.41-.53-1.91-3.51-4.92-5.22-5.84-1.37-.74-2.5-1.01-4.07-.85-.02-1.16,1.04-3.05,2.06-3.52Z"/><path class="cm" d="M136.58,121.19c-.89,1.72-1.81,1.86-3.61,2.29-.02-.23.03-.48,0-.7,1.39.09,2.62-.7,3.61-1.58Z"/><path class="at" d="M49.9,111.16c4.18-1.56,8.03-3.69,12.29-5.11.5-.17,2.09-.87,2.42-.35.06.1-.1.49-.07.75.15,1.08.72.76,1.26,1.19.3.24.63,1.09.89,1.25.59.36,1.19-.03,1.24,0,.03.02.11.37.26.52.97.95,1.35.21,1.88.36.23.07.37.57.63.77.89.69,1.5-.15,1.79-.07s.3.94,1.37.86c.78-.05,1.33-.78,1.59-.83.29-.06.74.24,1.31.09s.75-.76,1-.92c.33-.2.9-.1,1.36-.37.61-.37.81-1.38.9-1.45s.55,0,.82-.13c.64-.27,1-.97,1.04-1.66,3.31,1.09,6.13,2.97,9.29,4.31,1.52.64,4.85,2.06,6.36,2.21.04.79.4.96.86,1.41.11.1.16.31.34.43.99.65,4.3.23,5.16-.61.69-.18.69-.68,1.38-1.06.36-.2.83-.3,1.26-.56,2.53-1.54,4.1-4.21,6.14-6.3.45,1.91.95,4.23,1.2,6.16.29,2.21.15,4.51.69,6.69-3.24-.3-6.48-.69-9.72-1.05-2.74-.31-5.87-1.02-8.77-.88-1.5.07-3.28.34-4.56,1.14,1.1.53,2.84.93,3.61,1.93.1.12.52.83.52.88v3.08c6.39-3.12,8.92,2.6,5.54,7.87-1.44,2.25-4.09,4.27-6.61,5.03-1.43.43-3.26.44-4.51.84-.28.09-.43.18-.61.43,1.32.26,2.69.27,4.02.46,1.62.24,3.25.53,4.68,1.2,1.28.6,2.6,1.05,1.6,2.71-1.18,1.94-4.25,3.12-6.33,3.64-.05.01-.12-.01-.17,0-1.53.36-3.12.49-4.64.88l-8.33.71c-2.35-.07-4.71.06-7.07,0-.81-.02-1.58-.2-2.49-.18l-6.43-.73c-1.25-.2-2.49-.43-3.72-.68-.28-.06-.59-.11-.86-.18-1.22-.28-2.47-.5-3.61-1.06-1.66-.8-4.48-3.41-1.72-4.75.95-.46,2.88-.99,3.92-1.18,1.84-.34,3.85-.5,5.71-.58-3.36-3.65-5.87-8.64-6.51-13.66-.23-1.8-.64-3.66.84-4.99.78-.46,1.68-.87,2.54-1.19.72-.27,1.99-.65,1.99-.65-3.43-.91-7.67-2.27-10.89-3.79-.49-1.09-1.31-1.93-2.06-2.82ZM59.7,121.54c.11.67.18.63.85.97,2.4,1.22,6.27,1.63,8.95,1.84,3.66.29,7.68.32,11.35.18,2.53-.1,5.26-.31,7.74-.79,1.08-.21,4-.83,4.64-1.68,1.62-2.12-3.14-3.03-4.44-3.29-6.68-1.36-16.05-1.29-22.77-.18-1.37.23-6.23,1.05-6.46,2.71-.02.13.13.21.13.23ZM75.35,141.78c4.96.43,9.07-1.1,12.47-4.75,2.73-2.93,4.39-7.59,5.07-11.53l-1.76.45c-.79.69-2.33.85-3.4,1.04-6.7,1.19-19.48,1.23-25.76-1.04-.17-.06-1.03-.24-1.06-.19.64,7.82,6.12,15.97,14.45,16.01ZM99.21,126c-.58-.66-1.77-.43-2.48-.1-.18.09-.2.29-.36.38-.27.15-1.04.42-1.19.59s-.96,3.31-1.21,3.95c-.63,1.58-1.64,2.97-2.44,4.45,2.56-.85,6.08-2.08,7.52-4.71.68-1.24,1.2-3.38.17-4.56ZM67.27,141.43c-.41-.24-1.05-.75-1.46-1.06s-1.07-1.25-1.55-1.25c-.56,0-.4.33-.55.37-2.34.57-5.1.27-7.71,1.23-2.09.77-.76,1.06.48,1.46,4.66,1.49,11.45,2.39,16.38,2.6,7.52.31,15.9-.09,23-2.17,2.25-.66,4.28-1.12.65-2.15-1.78-.5-3.76-.74-5.59-.96-.57-.07-1.36.11-1.86,0-.14-.03-.05-.33-.37-.36-.56-.05-.52.45-.95.81-.39.32-1.13.89-1.55,1.14-2.94,1.74-6.63,2.3-9.98,2.29-2.53,0-5.57-.39-7.91-1.41-.26-.11-.79-.38-1.03-.53Z"/><path class="au" d="M60.56,146l1.6,1.09c3.1,1.98,6.88,2.3,10.51,2.44,5.6.22,13.97.54,18.78-2.27.62-.36,1.22-.81,1.78-1.26.05-.01.12.01.17,0v.18c1.05.47,2.36.34,3.27,1.14-.53.34-1.19.4-1.76.63-9.05,3.66-25.16,3.1-34.74.99-1.33-.29-2.63-.57-3.75-1.27l2.69-1.3-.11-.2c.13-.02.53-.26.69-.35.27.06.58.12.86.18Z"/><path class="e" d="M59.7,145.83c-.15.1-.55.33-.69.35-.94.14-2.59.14-3.61.18v-.18c.1,0,.34-.16.59-.18.77-.04,1.56.04,2.33,0-.49-.45-1.33-.65-1.95-.91-.12-.05-.71-.17-.29-.32,1.14.55,2.39.78,3.61,1.06Z"/><path class="as" d="M70.71,147.41c-.25,0-1-.15-1.03.17,6.47.32,12.99.31,19.43-.53l-.52-.17c1.52-.39,3.11-.52,4.64-.88-.55.45-1.16.9-1.78,1.26-4.81,2.81-13.19,2.49-18.78,2.27-3.64-.14-7.42-.46-10.51-2.44l-1.6-1.09c1.23.25,2.48.48,3.72.68l6.43.73Z"/><path class="cd" d="M86.19,141.08c.42-.25,1.17-.81,1.55-1.14.43-.36.39-.86.95-.81.33.03.23.33.37.36.5.12,1.28-.06,1.86,0,1.84.22,3.81.46,5.59.96,3.63,1.03,1.6,1.49-.65,2.15-7.1,2.08-15.49,2.48-23,2.17-4.93-.21-11.72-1.11-16.38-2.6-1.24-.4-2.57-.69-.48-1.46,2.61-.95,5.37-.66,7.71-1.23.15-.04,0-.36.55-.37.49,0,1.12.92,1.55,1.25s1.05.82,1.46,1.06c-1.28,1.44,2.22,1.86,3.13,2.13,4.96,1.45,9.57,1.52,14.41-.64.71-.31,1.86-.81,1.38-1.84Z"/><path class="aa" d="M86.19,141.08c.49,1.04-.67,1.53-1.38,1.84-4.84,2.15-9.45,2.09-14.41.64-.91-.27-4.41-.69-3.13-2.13.24.14.77.42,1.03.53-.42.18.72.52.77.54,2.41.79,4.01.72,6.37,1.05.4.06.87.87.78-.18,3.35,0,7.04-.55,9.98-2.29Z"/><path class="bn" d="M88.6,146.88l.52.17c-6.44.84-12.96.85-19.43.53.03-.33.78-.17,1.03-.17.91-.02,1.67.16,2.49.18,2.35.06,4.71-.07,7.07,0l8.33-.71Z"/><path class="bs" d="M76.21,143.36c.09,1.05-.38.24-.78.18-2.36-.34-3.95-.26-6.37-1.05-.04-.01-1.18-.36-.77-.54,2.34,1.02,5.38,1.4,7.91,1.41Z"/><path class="k" d="M75.35,141.78c-8.33-.04-13.8-8.19-14.45-16.01.04-.04.89.13,1.06.19,6.28,2.27,19.07,2.23,25.76,1.04-.39,2.87-1.26,5.72-2.75,8.19-1.14,1.89-4.98,6.1-7.16,6.41-.53.07-2.02.19-2.48.19ZM65.01,128.08l-2.21-.38c1.08,4.05,3.18,8.04,6.36,10.73l-1.4-2.17c-1.22-2.6-2.33-5.31-2.75-8.19Z"/><path class="aq" d="M93.24,122.07c-.64.84-3.56,1.47-4.64,1.68-2.48.47-5.22.69-7.74.79l-11.35-.18c-2.68-.21-6.55-.62-8.95-1.84-.67-.34-.75-.31-.85-.97,3.25-.84,6.54-1.63,9.89-1.93,5.58-.51,18.05-.39,23.1,1.88.3.14.57.12.55.58ZM82.4,121.37c.38-.55-1.79-.69-2.14-.71-1.59-.1-3.83-.06-5.25.62.81.57,7.12.47,7.39.09Z"/><path class="n" d="M87.74,127c1.07-.19,2.61-.35,3.4-1.04l1.76-.45c-.69,3.94-2.34,8.6-5.07,11.53-3.4,3.65-7.51,5.18-12.47,4.75.46,0,1.95-.12,2.48-.19,2.18-.3,6.01-4.51,7.16-6.41,1.49-2.47,2.36-5.32,2.75-8.19Z"/><path class="ag" d="M93.24,122.07c.02-.46-.25-.45-.55-.58-5.05-2.27-17.52-2.39-23.1-1.88-3.35.31-6.65,1.09-9.89,1.93,0-.03-.15-.1-.13-.23.23-1.65,5.09-2.48,6.46-2.71,6.73-1.11,16.1-1.19,22.77.18,1.3.27,6.05,1.17,4.44,3.29Z"/><path class="bd" d="M80.86,124.53c-3.67.14-7.69.11-11.35-.18l11.35.18Z"/><path class="j" d="M65.01,128.08c.41,2.88,1.52,5.59,2.75,8.19l1.4,2.17c-3.18-2.69-5.29-6.69-6.36-10.73l2.21.38Z"/><path class="o" d="M82.4,121.37c-.27.38-6.58.48-7.39-.09,1.42-.68,3.66-.73,5.25-.62.36.02,2.52.16,2.14.71Z"/></svg>